<?xml version="1.0" standalone="no"?>
<!DOCTYPE svg PUBLIC "-//W3C//DTD SVG 1.1//EN" "http://www.w3.org/Graphics/SVG/1.1/DTD/svg11.dtd" >
<svg xmlns="http://www.w3.org/2000/svg">
<metadata>
This is a custom SVG font generated by IcoMoon.
<iconset grid="48"></iconset>
</metadata>
<defs>
<font id="wsnics-icon" horiz-adv-x="1536" >
<font-face units-per-em="1536" ascent="1504" descent="-32" />
<missing-glyph horiz-adv-x="1536" />
<glyph unicode="&#xe000;" d="M 1392.00,1312.00L 144.00,1312.00 C 64.80,1312.00,0.00,1247.20,0.00,1168.00l0.00-960.00 c0.00-79.20, 64.80-144.00, 144.00-144.00l 1248.00,0.00 c 79.20,0.00, 144.00,64.80, 144.00,144.00L 1536.00,1168.00 C 1536.00,1247.20, 1471.20,1312.00, 1392.00,1312.00z
	 M 598.11,678.442L 192.00,362.104L 192.00,1114.567 L 598.11,678.442z M 264.57,1120.00L 1271.43,1120.00 L 768.00,742.00L 264.57,1120.00z M 613.932,661.453L 768.00,496.00l 154.065,165.453
	L 1237.896,256.00L 298.104,256.00 L 613.932,661.453z M 937.89,678.442L 1344.00,1114.567l0.00-752.463 L 937.89,678.442z" data-tags="envelop, mail, email, contact, letter" />
<glyph unicode="&#xe001;" d="M 1344.00,1312.00l-144.00,0.00 l0.00-48.00 c0.00-52.935-43.065-96.00-96.00-96.00s-96.00,43.065-96.00,96.00L 1008.00,1312.00 L 528.00,1312.00 l0.00-48.00 c0.00-52.935-43.065-96.00-96.00-96.00s-96.00,43.065-96.00,96.00L 336.00,1312.00 L 192.00,1312.00 
		c-52.80,0.00-96.00-43.20-96.00-96.00l0.00-1056.00 c0.00-52.80, 43.20-96.00, 96.00-96.00l 1152.00,0.00 c 52.80,0.00, 96.00,43.20, 96.00,96.00L 1440.00,1216.00 C 1440.00,1268.80, 1396.80,1312.00, 1344.00,1312.00z M 1344.00,160.174
		c-0.051-0.06-0.114-0.123-0.174-0.174L 192.171,160.00 c-0.06,0.051-0.123,0.114-0.171,0.174L 192.00,1024.00 l 1152.00,0.00 L 1344.00,160.174 zM 432.00,1216.00c 26.508,0.00, 48.00,21.492, 48.00,48.00L 480.00,1456.00 c0.00,26.508-21.492,48.00-48.00,48.00s-48.00-21.492-48.00-48.00l0.00-192.00 C 384.00,1237.492, 405.492,1216.00, 432.00,1216.00zM 1104.00,1216.00c 26.508,0.00, 48.00,21.492, 48.00,48.00L 1152.00,1456.00 c0.00,26.508-21.492,48.00-48.00,48.00s-48.00-21.492-48.00-48.00l0.00-192.00 C 1056.00,1237.492, 1077.492,1216.00, 1104.00,1216.00zM 864.00,928.00L 384.00,928.00L 384.00,832.00L 768.00,832.00L 768.00,640.00L 384.00,640.00L 384.00,544.00L 768.00,544.00L 768.00,352.00L 384.00,352.00L 384.00,256.00L 864.00,256.00 	zM 1056.00,256.00L 1152.00,256.00L 1152.00,928.00L 960.00,928.00L 960.00,832.00L 1056.00,832.00 	zM 1308.00,28.00L 228.00,28.00 c-52.80,0.00-96.00,31.20-96.00,84.00l0.00-48.00 c0.00-52.80, 43.20-96.00, 96.00-96.00l 1080.00,0.00 c 52.80,0.00, 96.00,43.20, 96.00,96.00l0.00,48.00 C 1404.00,59.20, 1360.80,28.00, 1308.00,28.00z" data-tags="calendar, schedule, date, time, day" />
<glyph unicode="&#xe002;" d="M 384.00,1408.00L 1152.00,1408.00L 1152.00,1216.00L 384.00,1216.00zM 1440.00,1120.00L 96.00,1120.00 C 43.20,1120.00,0.00,1076.80,0.00,1024.00l0.00-480.00 c0.00-52.80, 43.194-96.00, 96.00-96.00l 288.00,0.00 l0.00-384.00 l 768.00,0.00 L 1152.00,448.00 l 288.00,0.00 c 52.80,0.00, 96.00,43.20, 96.00,96.00L 1536.00,1024.00 
		C 1536.00,1076.80, 1492.80,1120.00, 1440.00,1120.00z M 1056.00,160.00L 480.00,160.00 L 480.00,640.00 l 576.00,0.00 L 1056.00,160.00 z M 1461.60,976.00c0.00-38.439-31.161-69.60-69.597-69.60
		c-38.439,0.00-69.603,31.161-69.603,69.60s 31.164,69.60, 69.603,69.60C 1430.442,1045.60, 1461.60,1014.439, 1461.60,976.00z" data-tags="print, printer" />
<glyph unicode="&#xe003;" d="M 576.00,736.00A192.00,192.00 2700.00 1,0 960.00,736A192.00,192.00 2700.00 1,0 576.00,736zM 996.522,1158.211 C 1146.30,1076.974 1248.00,918.364 1248.00,736.00 C 1248.00,553.636 1146.30,395.026 996.522,313.789 C 1062.621,418.978 1104.00,569.194 1104.00,736.00 C 1104.00,902.806 1062.621,1053.022 996.522,1158.211 ZM 432.00,736.00 C 432.00,569.194 473.376,418.978 539.478,313.789 C 389.70,395.029 288.00,553.636 288.00,736.00 C 288.00,918.364 389.70,1076.971 539.478,1158.211 C 473.376,1053.022 432.00,902.806 432.00,736.00 ZM 144.00,736.00 C 144.00,478.15 225.606,246.724 354.978,88.417 C 141.525,224.839 0.00,463.888 0.00,736.00 C 0.00,1008.112 141.525,1247.161 354.978,1383.583 C 225.606,1225.276 144.00,993.85 144.00,736.00 ZM 1181.028,1383.58 C 1394.475,1247.161 1536.00,1008.112 1536.00,736.00 C 1536.00,463.888 1394.475,224.839 1181.028,88.42 C 1310.394,246.724 1392.00,478.15 1392.00,736.00 C 1392.00,993.85 1310.394,1225.276 1181.028,1383.58 Z" data-tags="feed, wave, radio, live, broadcast" />
<glyph unicode="&#xe004;" d="M 768.00-32.00c 424.155,0.00, 768.00,343.845, 768.00,768.00S 1192.155,1504.00, 768.00,1504.00S0.00,1160.155,0.00,736.00S 343.845-32.00, 768.00-32.00z M 768.00,1360.00
		c 344.625,0.00, 624.00-279.375, 624.00-624.00s-279.375-624.00-624.00-624.00S 144.00,391.375, 144.00,736.00S 423.375,1360.00, 768.00,1360.00zM 768.00,605.86 C 941.925,605.86 1107.345,652.069 1248.00,733.24 C 1226.139,465.583 1018.308,256.00 768.00,256.00 C 517.698,256.00 309.867,465.808 288.00,733.456 C 428.655,652.288 594.075,605.86 768.00,605.86 ZM 384.00,976.00A96.00,144.00 2700.00 1,0 576.00,976A96.00,144.00 2700.00 1,0 384.00,976zM 960.00,976.00A96.00,144.00 2700.00 1,0 1152.00,976A96.00,144.00 2700.00 1,0 960.00,976z" data-tags="happy, emoticon, smiley, face" />
<glyph unicode="&#xe005;" d="M 768.00-32.00c 424.155,0.00, 768.00,343.845, 768.00,768.00S 1192.155,1504.00, 768.00,1504.00S0.00,1160.155,0.00,736.00S 343.845-32.00, 768.00-32.00z M 768.00,1360.00
		c 344.625,0.00, 624.00-279.375, 624.00-624.00s-279.375-624.00-624.00-624.00S 144.00,391.375, 144.00,736.00S 423.375,1360.00, 768.00,1360.00zM 384.00,1024.00 C 384.00,1077.019 426.981,1120.00 480.00,1120.00 C 533.019,1120.00 576.00,1077.019 576.00,1024.00 C 576.00,970.981 533.019,928.00 480.00,928.00 C 426.981,928.00 384.00,970.981 384.00,1024.00 Z M 960.00,1024.00 C 960.00,1077.019 1002.981,1120.00 1056.00,1120.00 C 1109.019,1120.00 1152.00,1077.019 1152.00,1024.00 C 1152.00,970.981 1109.019,928.00 1056.00,928.00 C 1002.981,928.00 960.00,970.981 960.00,1024.00 ZM 479.853,332.89 L 356.361,406.984 C 440.304,546.589 593.235,640.00 768.00,640.00 C 942.762,640.00 1095.693,546.589 1179.639,406.984 L 1056.147,332.89 C 997.386,430.612 890.334,496.00 768.00,496.00 C 645.663,496.00 538.614,430.612 479.853,332.89 Z" data-tags="sad, emoticon, smiley, face" />
<glyph unicode="&#xe006;" d="M 768.00-32.00c 424.155,0.00, 768.00,343.845, 768.00,768.00S 1192.155,1504.00, 768.00,1504.00S0.00,1160.155,0.00,736.00S 343.845-32.00, 768.00-32.00z M 768.00,1360.00
		c 344.625,0.00, 624.00-279.375, 624.00-624.00s-279.375-624.00-624.00-624.00S 144.00,391.375, 144.00,736.00S 423.375,1360.00, 768.00,1360.00zM 384.00,1024.00c0.00-53.019, 42.981-96.00, 96.00-96.00s 96.00,42.981, 96.00,96.00s-42.981,96.00-96.00,96.00S 384.00,1077.019, 384.00,1024.00z M 960.00,1024.00
	c0.00-53.019, 42.981-96.00, 96.00-96.00s 96.00,42.981, 96.00,96.00s-42.981,96.00-96.00,96.00S 960.00,1077.019, 960.00,1024.00z M 576.00,448.00l 384.00,0.00 l0.00-96.00 L 576.00,352.00 L 576.00,448.00 z" data-tags="neutral, emoticon, smiley, face" />
<glyph unicode="&#xe007;" d="M 768.00-32.00c 424.155,0.00, 768.00,343.845, 768.00,768.00S 1192.155,1504.00, 768.00,1504.00S0.00,1160.155,0.00,736.00S 343.845-32.00, 768.00-32.00z M 768.00,1360.00
	c 344.625,0.00, 624.00-279.375, 624.00-624.00s-279.375-624.00-624.00-624.00S 144.00,391.375, 144.00,736.00S 423.375,1360.00, 768.00,1360.00z M 1056.147,332.89
	C 997.386,430.612, 890.331,496.00, 768.00,496.00c-122.334,0.00-229.386-65.388-288.147-163.11l-123.492,74.094C 440.301,546.589, 593.235,640.00, 768.00,640.00
	c 174.762,0.00, 327.696-93.411, 411.639-233.016L 1056.147,332.89zM 1150.563,1083.64 C 1156.989,1057.924 1141.353,1031.863 1115.64,1025.434 C 1089.201,1018.759 1057.857,1007.254 1030.236,993.409 C 1046.208,976.264 1055.997,953.281 1055.997,928.00 C 1055.997,874.981 1013.016,832.00 959.997,832.00 C 906.978,832.00 863.997,874.981 863.997,928.00 C 863.997,929.755 864.051,931.495 864.144,933.226 C 867.192,1004.407 931.962,1051.645 986.532,1078.933 C 1038.645,1104.988 1090.185,1118.023 1092.354,1118.566 C 1118.073,1124.998 1144.131,1109.359 1150.563,1083.64 ZM 385.437,1083.64c 6.432,25.719, 32.49,41.358, 58.209,34.926c 2.169-0.543, 53.709-13.578, 105.822-39.633
	c 54.57-27.288, 119.34-74.526, 122.388-145.707c 0.093-1.731, 0.147-3.471, 0.147-5.226c0.00-53.019-42.981-96.00-96.00-96.00s-96.00,42.981-96.00,96.00
	c0.00,25.281, 9.789,48.264, 25.761,65.409c-27.621,13.845-58.965,25.35-85.404,32.025C 394.647,1031.863, 379.011,1057.924, 385.437,1083.64z" data-tags="angry, emoticon, smiley, face, rage" />
<glyph unicode="&#xe008;" d="M 960.00,640.00 C 1118.805,640.00 1262.805,575.401 1367.103,471.103 L 1231.401,335.401 C 1161.87,404.935 1065.867,448.00 960.00,448.00 C 854.133,448.00 758.133,404.935 688.599,335.401 L 552.897,471.103 C 657.195,575.401 801.195,640.00 960.00,640.00 ZM 281.178,742.822 C 462.498,924.142 703.575,1024.00 960.00,1024.00 C 1216.425,1024.00 1457.502,924.142 1638.825,742.822 L 1503.06,607.06 L 1503.06,607.06 C 1358.001,752.116 1165.14,832.00 960.00,832.00 C 754.857,832.00 561.999,752.116 416.943,607.057 L 281.178,742.822 ZM 1483.176,1302.343 C 1643.229,1234.645 1786.95,1137.751 1910.349,1014.349 L 1910.349,1014.349 L 1774.587,878.587 C 1557.003,1096.171 1267.707,1216.00 960.00,1216.00 C 652.29,1216.00 363.00,1096.171 145.413,878.587 L 9.648,1014.352 C 133.05,1137.751 276.771,1234.645 436.824,1302.343 C 602.58,1372.45 778.602,1408.00 960.00,1408.00 C 1141.398,1408.00 1317.417,1372.45 1483.176,1302.343 ZM 864.00,160.00A96.00,96.00 2700.00 1,0 1056.00,160A96.00,96.00 2700.00 1,0 864.00,160z" horiz-adv-x="1920" data-tags="connection, broadcast, wifi, wave, feed" />
<glyph unicode="&#xe020;" d="M 1316.571,1284.571l0.00-384.00 q0.00-22.286 -16.286-38.571t-38.571-16.286l-384.00,0.00 q-36.00,0.00 -50.571,34.286q-14.571,33.429 12.00,59.143l 118.286,118.286q-126.857,117.429 -299.143,117.429q-89.143,0.00 -170.143-34.714t-140.143-93.857t-93.857-140.143t-34.714-170.143t 34.714-170.143t 93.857-140.143t 140.143-93.857t 170.143-34.714q 144.857,0.00 260.571,85.286t 158.571,224.143q 6.00,19.714 25.714,19.714l 170.571,0.00  q 13.714,0.00 21.429-10.286q 8.571-11.143 6.00-23.143q-33.429-150.00 -126.429-267.429t-228.00-182.571t-288.429-65.143q-133.714,0.00 -255.429,52.286t-210.00,140.571t-140.571,210.00t-52.286,255.429t 52.286,255.429t 140.571,210.00t 210.00,140.571t 255.429,52.286q 126.00,0.00 243.857-47.571t 209.571-134.143l 111.429,110.571q 24.857,26.571 60.00,12.00q 33.429-14.571 33.429-50.571z" horiz-adv-x="1316.5714285714284" data-tags="repeat" />
<glyph unicode="&#xe021;" d="M 1295.143,544.00q0.00-4.286 -0.857-6.00q-54.857-229.714 -229.714-372.429t-409.714-142.714q-125.143,0.00 -242.143,47.143t-208.714,134.571l-110.571-110.571q-16.286-16.286 -38.571-16.286t-38.571,16.286t-16.286,38.571l0.00,384.00 q0.00,22.286 16.286,38.571t 38.571,16.286l 384.00,0.00 q 22.286,0.00 38.571-16.286t 16.286-38.571t-16.286-38.571l-117.429-117.429q 60.857-56.571 138.00-87.429t 160.286-30.857q 114.857,0.00 214.286,55.714t 159.429,153.429q 9.429,14.571 45.429,100.286 q 6.857,19.714 25.714,19.714l 164.571,0.00 q 11.143,0.00 19.286-8.143t 8.143-19.286zM 1316.571,1229.714l0.00-384.00 q0.00-22.286 -16.286-38.571t-38.571-16.286l-384.00,0.00 q-22.286,0.00 -38.571,16.286t-16.286,38.571t 16.286,38.571l 118.286,118.286q-126.857,117.429 -299.143,117.429q-114.857,0.00 -214.286-55.714t-159.429-153.429q-9.429-14.571 -45.429-100.286q-6.857-19.714 -25.714-19.714l-170.571,0.00 q-11.143,0.00 -19.286,8.143t-8.143,19.286l0.00,6.00 q 55.714,229.714 231.429,372.429t 411.429,142.714 q 125.143,0.00 243.429-47.571t 210.00-134.143l 111.429,110.571q 16.286,16.286 38.571,16.286t 38.571-16.286t 16.286-38.571z" horiz-adv-x="1316.5714285714284" data-tags="refresh" />
<glyph unicode="&#xe025;" d="M 219.429,269.714l0.00-164.571 q0.00-12.00 -7.714-19.714t-19.714-7.714l-164.571,0.00 q-12.00,0.00 -19.714,7.714t-7.714,19.714l0.00,164.571 q0.00,12.00 7.714,19.714t 19.714,7.714l 164.571,0.00 q 12.00,0.00 19.714-7.714t 7.714-19.714zM 548.571,379.429l0.00-274.286 q0.00-12.00 -7.714-19.714t-19.714-7.714l-164.571,0.00 q-12.00,0.00 -19.714,7.714t-7.714,19.714l0.00,274.286 q0.00,12.00 7.714,19.714t 19.714,7.714l 164.571,0.00 q 12.00,0.00 19.714-7.714t 7.714-19.714zM 877.714,598.857l0.00-493.714 q0.00-12.00 -7.714-19.714t-19.714-7.714l-164.571,0.00 q-12.00,0.00 -19.714,7.714t-7.714,19.714 l0.00,493.714 q0.00,12.00 7.714,19.714t 19.714,7.714l 164.571,0.00 q 12.00,0.00 19.714-7.714t 7.714-19.714zM 1206.857,928.00l0.00-822.857 q0.00-12.00 -7.714-19.714t-19.714-7.714l-164.571,0.00 q-12.00,0.00 -19.714,7.714t-7.714,19.714l0.00,822.857 q0.00,12.00 7.714,19.714t 19.714,7.714l 164.571,0.00 q 12.00,0.00 19.714-7.714t 7.714-19.714zM 1536.00,1366.857l0.00-1261.714 q0.00-12.00 -7.714-19.714t-19.714-7.714l-164.571,0.00 q-12.00,0.00 -19.714,7.714t-7.714,19.714l0.00,1261.714 q0.00,12.00 7.714,19.714t 19.714,7.714l 164.571,0.00 q 12.00,0.00 19.714-7.714t 7.714-19.714z" data-tags="signal" />
<glyph unicode="&#xe026;" d="M 438.857,626.286l0.00-329.143 l-219.429,0.00 l0.00,329.143 l 219.429,0.00 zM 768.00,1065.143l0.00-768.00 l-219.429,0.00 l0.00,768.00 l 219.429,0.00 zM 1097.143,845.714l0.00-548.571 l-219.429,0.00 l0.00,548.571 l 219.429,0.00 zM 1426.286,1174.857l0.00-877.714 l-219.429,0.00 l0.00,877.714 l 219.429,0.00 zM 1536.00,214.857l0.00,1042.286 q0.00,11.143 -8.143,19.286t-19.286,8.143l-1371.429,0.00 q-11.143,0.00 -19.286-8.143t-8.143-19.286l0.00-1042.286 q0.00-11.143 8.143-19.286t 19.286-8.143l 1371.429,0.00 q 11.143,0.00 19.286,8.143t 8.143,19.286z M 1645.714,1257.143l0.00-1042.286 q0.00-56.571 -40.286-96.857t-96.857-40.286l-1371.429,0.00 q-56.571,0.00 -96.857,40.286t-40.286,96.857l0.00,1042.286 q0.00,56.571 40.286,96.857t 96.857,40.286l 1371.429,0.00 q 56.571,0.00 96.857-40.286t 40.286-96.857z" horiz-adv-x="1645.7142857142856" data-tags="bar-chart" />
<glyph unicode="&#xe029;" d="M 877.714,736.00q0.00,90.857 -64.286,155.143t-155.143,64.286t-155.143-64.286t-64.286-155.143t 64.286-155.143t 155.143-64.286t 155.143,64.286t 64.286,155.143zM 1316.571,829.429l0.00-190.286 q0.00-10.286 -6.857-19.714t-17.143-11.143l-158.571-24.00q-16.286-46.286 -33.429-78.00q 30.00-42.857 91.714-118.286q 8.571-10.286 8.571-21.429t-7.714-19.714q-23.143-31.714 -84.857-92.571t-80.571-60.857q-10.286,0.00 -22.286,7.714l-118.286,92.571q-37.714-19.714 -78.00-32.571 q-13.714-116.571 -24.857-159.429q-6.00-24.00 -30.857-24.00l-190.286,0.00 q-12.00,0.00 -21.00,7.286t-9.857,18.429l-24.00,157.714q-42.00,13.714 -77.143,31.714l-120.857-91.714q-8.571-7.714 -21.429-7.714q-12.00,0.00 -21.429,9.429q-108.00,97.714 -141.429,144.00q-6.00,8.571 -6.00,19.714q0.00,10.286 6.857,19.714q 12.857,18.00 43.714,57.00t 46.286,60.429q-23.143,42.857 -35.143,84.857l-156.857,23.143q-11.143,1.714 -18.00,10.714t-6.857,20.143l0.00,190.286 q0.00,10.286 6.857,19.714t 16.286,11.143 l 159.429,24.00q 12.00,39.429 33.429,78.857q-34.286,48.857 -91.714,118.286q-8.571,10.286 -8.571,20.571q0.00,8.571 7.714,19.714q 22.286,30.857 84.429,92.143t 81.00,61.286q 11.143,0.00 22.286-8.571l 118.286-91.714q 37.714,19.714 78.00,32.571q 13.714,116.571 24.857,159.429q 6.00,24.00 30.857,24.00l 190.286,0.00 q 12.00,0.00 21.00-7.286t 9.857-18.429l 24.00-157.714q 42.00-13.714 77.143-31.714l 121.714,91.714q 7.714,7.714 20.571,7.714q 11.143,0.00 21.429-8.571q 110.571-102.00 141.429-145.714q 6.00-6.857 6.00-18.857 q0.00-10.286 -6.857-19.714q-12.857-18.00 -43.714-57.00t-46.286-60.429q 22.286-42.857 35.143-84.00l 156.857-24.00q 11.143-1.714 18.00-10.714t 6.857-20.143z" horiz-adv-x="1316.5714285714284" data-tags="cog" />
<glyph unicode="&#xe02f;" d="M 329.143,132.571l0.00,109.714 q0.00,22.286 -16.286,38.571t-38.571,16.286l-109.714,0.00 q-22.286,0.00 -38.571-16.286t-16.286-38.571l0.00-109.714 q0.00-22.286 16.286-38.571t 38.571-16.286l 109.714,0.00 q 22.286,0.00 38.571,16.286t 16.286,38.571zM 329.143,461.714l0.00,109.714 q0.00,22.286 -16.286,38.571t-38.571,16.286l-109.714,0.00 q-22.286,0.00 -38.571-16.286t-16.286-38.571l0.00-109.714 q0.00-22.286 16.286-38.571t 38.571-16.286l 109.714,0.00 q 22.286,0.00 38.571,16.286t 16.286,38.571zM 329.143,790.857l0.00,109.714 q0.00,22.286 -16.286,38.571t-38.571,16.286l-109.714,0.00  q-22.286,0.00 -38.571-16.286t-16.286-38.571l0.00-109.714 q0.00-22.286 16.286-38.571t 38.571-16.286l 109.714,0.00 q 22.286,0.00 38.571,16.286t 16.286,38.571zM 1206.857,132.571l0.00,438.857 q0.00,22.286 -16.286,38.571t-38.571,16.286l-658.286,0.00 q-22.286,0.00 -38.571-16.286t-16.286-38.571l0.00-438.857 q0.00-22.286 16.286-38.571t 38.571-16.286l 658.286,0.00 q 22.286,0.00 38.571,16.286t 16.286,38.571zM 329.143,1120.00l0.00,109.714 q0.00,22.286 -16.286,38.571t-38.571,16.286l-109.714,0.00 q-22.286,0.00 -38.571-16.286t-16.286-38.571l0.00-109.714 q0.00-22.286 16.286-38.571 t 38.571-16.286l 109.714,0.00 q 22.286,0.00 38.571,16.286t 16.286,38.571zM 1536.00,132.571l0.00,109.714 q0.00,22.286 -16.286,38.571t-38.571,16.286l-109.714,0.00 q-22.286,0.00 -38.571-16.286t-16.286-38.571l0.00-109.714 q0.00-22.286 16.286-38.571t 38.571-16.286l 109.714,0.00 q 22.286,0.00 38.571,16.286t 16.286,38.571zM 1206.857,790.857l0.00,438.857 q0.00,22.286 -16.286,38.571t-38.571,16.286l-658.286,0.00 q-22.286,0.00 -38.571-16.286t-16.286-38.571l0.00-438.857 q0.00-22.286 16.286-38.571t 38.571-16.286l 658.286,0.00 q 22.286,0.00 38.571,16.286t 16.286,38.571zM 1536.00,461.714l0.00,109.714  q0.00,22.286 -16.286,38.571t-38.571,16.286l-109.714,0.00 q-22.286,0.00 -38.571-16.286t-16.286-38.571l0.00-109.714 q0.00-22.286 16.286-38.571t 38.571-16.286l 109.714,0.00 q 22.286,0.00 38.571,16.286t 16.286,38.571zM 1536.00,790.857l0.00,109.714 q0.00,22.286 -16.286,38.571t-38.571,16.286l-109.714,0.00 q-22.286,0.00 -38.571-16.286t-16.286-38.571l0.00-109.714 q0.00-22.286 16.286-38.571t 38.571-16.286l 109.714,0.00 q 22.286,0.00 38.571,16.286t 16.286,38.571zM 1536.00,1120.00l0.00,109.714 q0.00,22.286 -16.286,38.571t-38.571,16.286l-109.714,0.00 q-22.286,0.00 -38.571-16.286 t-16.286-38.571l0.00-109.714 q0.00-22.286 16.286-38.571t 38.571-16.286l 109.714,0.00 q 22.286,0.00 38.571,16.286t 16.286,38.571zM 1645.714,1257.143l0.00-1152.00 q0.00-56.571 -40.286-96.857t-96.857-40.286l-1371.429,0.00 q-56.571,0.00 -96.857,40.286t-40.286,96.857l0.00,1152.00 q0.00,56.571 40.286,96.857t 96.857,40.286l 1371.429,0.00 q 56.571,0.00 96.857-40.286t 40.286-96.857z" horiz-adv-x="1645.7142857142856" data-tags="film" />
<glyph unicode="&#xe030;" d="M 1206.857,299.714q0.00-102.857 -62.571-162.429t-166.286-59.571l-749.143,0.00 q-103.714,0.00 -166.286,59.571t-62.571,162.429q0.00,45.429 3.00,88.714t 12.00,93.429t 22.714,93.00t 36.857,83.571t 53.143,69.429t 73.286,45.857t 95.571,17.143q 7.714,0.00 36.00-18.429t 63.857-41.143t 92.571-41.143t 114.429-18.429t 114.429,18.429t 92.571,41.143t 63.857,41.143t 36.00,18.429q 52.286,0.00 95.571-17.143t 73.286-45.857t 53.143-69.429 t 36.857-83.571t 22.714-93.00t 12.00-93.429t 3.00-88.714zM 932.571,1065.143q0.00-136.286 -96.429-232.714t-232.714-96.429t-232.714,96.429t-96.429,232.714t 96.429,232.714t 232.714,96.429t 232.714-96.429t 96.429-232.714z" horiz-adv-x="1206.857142857143" data-tags="user" />
<glyph unicode="&#xe031;" d="M 974.571,588.571l 262.286,254.571l-361.714,53.143l-162.00,327.429l-162.00-327.429l-361.714-53.143l 262.286-254.571l-62.571-360.857l 324.00,170.571l 323.143-170.571zM 1426.286,894.571q0.00-18.857 -22.286-41.143l-311.143-303.429l 73.714-428.571q 0.857-6.00 0.857-17.143q0.00-42.857 -35.143-42.857q-16.286,0.00 -34.286,10.286l-384.857,202.286l-384.857-202.286q-18.857-10.286 -34.286-10.286q-18.00,0.00 -27.00,12.429t-9.00,30.429q0.00,5.143 1.714,17.143l 73.714,428.571 l-312.00,303.429q-21.429,23.143 -21.429,41.143q0.00,31.714 48.00,39.429l 430.286,62.571l 192.857,390.00q 16.286,35.143 42.00,35.143t 42.00-35.143l 192.857-390.00l 430.286-62.571q 48.00-7.714 48.00-39.429z" horiz-adv-x="1426.2857142857142" data-tags="star-empty" />
<glyph unicode="&#xe032;" d="M 1426.286,949.429q0.00-18.857 -22.286-41.143l-311.143-303.429l 73.714-428.571q 0.857-6.00 0.857-17.143q0.00-18.00 -9.00-30.429t-26.143-12.429q-16.286,0.00 -34.286,10.286l-384.857,202.286l-384.857-202.286q-18.857-10.286 -34.286-10.286q-18.00,0.00 -27.00,12.429t-9.00,30.429q0.00,5.143 1.714,17.143l 73.714,428.571l-312.00,303.429q-21.429,23.143 -21.429,41.143q0.00,31.714 48.00,39.429l 430.286,62.571l 192.857,390.00q 16.286,35.143 42.00,35.143t 42.00-35.143l 192.857-390.00 l 430.286-62.571q 48.00-7.714 48.00-39.429z" horiz-adv-x="1426.2857142857142" data-tags="star" />
<glyph unicode="&#xe033;" d="M 1426.286,214.857l0.00,658.286 q-27.429-30.857 -59.143-56.571q-229.714-176.571 -365.143-289.714q-43.714-36.857 -71.143-57.429t-74.143-41.571t-87.857-21.00l-0.857,0.00 l-0.857,0.00 q-41.143,0.00 -87.857,21.00t-74.143,41.571t-71.143,57.429q-135.429,113.143 -365.143,289.714q-31.714,25.714 -59.143,56.571l0.00-658.286 q0.00-11.143 8.143-19.286t 19.286-8.143l 1261.714,0.00 q 11.143,0.00 19.286,8.143t 8.143,19.286zM 1426.286,1115.714l0.00,9.429 l0.00,11.571 t-0.429,11.143 t-2.571,10.714t-4.714,7.714t-7.714,6.429t-12.00,2.143l-1261.714,0.00 q-11.143,0.00 -19.286-8.143t-8.143-19.286q0.00-144.00 126.00-243.429q 165.429-130.286 343.714-271.714q 5.143-4.286 30.00-25.286t 39.429-32.143t 38.143-27.00t 43.286-23.571t 36.857-7.714l 0.857,0.00 l 0.857,0.00 q 17.143,0.00 36.857,7.714t 43.286,23.571t 38.143,27.00t 39.429,32.143t 30.00,25.286q 178.286,141.429 343.714,271.714q 46.286,36.857 86.143,99.00t 39.857,112.714z M 1536.00,1147.429l0.00-932.571 q0.00-56.571 -40.286-96.857t-96.857-40.286l-1261.714,0.00 q-56.571,0.00 -96.857,40.286t-40.286,96.857l0.00,932.571 q0.00,56.571 40.286,96.857t 96.857,40.286l 1261.714,0.00 q 56.571,0.00 96.857-40.286t 40.286-96.857z" />
<glyph unicode="&#xe034;" d="M 438.857,873.143l0.00-493.714 q0.00-12.00 -7.714-19.714t-19.714-7.714l-54.857,0.00 q-12.00,0.00 -19.714,7.714t-7.714,19.714l0.00,493.714 q0.00,12.00 7.714,19.714t 19.714,7.714l 54.857,0.00 q 12.00,0.00 19.714-7.714t 7.714-19.714zM 658.286,873.143l0.00-493.714 q0.00-12.00 -7.714-19.714t-19.714-7.714l-54.857,0.00 q-12.00,0.00 -19.714,7.714t-7.714,19.714l0.00,493.714 q0.00,12.00 7.714,19.714t 19.714,7.714l 54.857,0.00 q 12.00,0.00 19.714-7.714t 7.714-19.714zM 877.714,873.143l0.00-493.714 q0.00-12.00 -7.714-19.714t-19.714-7.714l-54.857,0.00 q-12.00,0.00 -19.714,7.714t-7.714,19.714l0.00,493.714  q0.00,12.00 7.714,19.714t 19.714,7.714l 54.857,0.00 q 12.00,0.00 19.714-7.714t 7.714-19.714zM 987.429,252.571l0.00,812.571 l-768.00,0.00 l0.00-812.571 q0.00-18.857 6.00-34.714t 12.429-23.143t 9.00-7.286l 713.143,0.00 q 2.571,0.00 9.00,7.286t 12.429,23.143t 6.00,34.714zM 411.429,1174.857l 384.00,0.00 l-41.143,100.286q-6.00,7.714 -14.571,9.429l-271.714,0.00 q-8.571-1.714 -14.571-9.429zM 1206.857,1147.429l0.00-54.857 q0.00-12.00 -7.714-19.714t-19.714-7.714l-82.286,0.00 l0.00-812.571 q0.00-71.143 -40.286-123.00t-96.857-51.857l-713.143,0.00  q-56.571,0.00 -96.857,50.143t-40.286,121.286l0.00,816.00 l-82.286,0.00 q-12.00,0.00 -19.714,7.714t-7.714,19.714l0.00,54.857 q0.00,12.00 7.714,19.714t 19.714,7.714l 264.857,0.00 l 60.00,143.143q 12.857,31.714 46.286,54.00t 67.714,22.286l 274.286,0.00 q 34.286,0.00 67.714-22.286t 46.286-54.00l 60.00-143.143l 264.857,0.00 q 12.00,0.00 19.714-7.714t 7.714-19.714z" horiz-adv-x="1206.857142857143" data-tags="trash" />
<glyph unicode="&#xe035;" d="M 1206.857,653.714l0.00-411.429 q0.00-22.286 -16.286-38.571t-38.571-16.286l-329.143,0.00 l0.00,329.143 l-219.429,0.00 l0.00-329.143 l-329.143,0.00 q-22.286,0.00 -38.571,16.286t-16.286,38.571l0.00,411.429 q0.00,0.857 0.429,2.571t 0.429,2.571l 492.857,406.286l 492.857-406.286q 0.857-1.714 0.857-5.143zM 1398.00,712.857l-53.143-63.429q-6.857-7.714 -18.00-9.429l-2.571,0.00 q-11.143,0.00 -18.00,6.00l-593.143,494.571l-593.143-494.571q-10.286-6.857 -20.571-6.00q-11.143,1.714 -18.00,9.429l-53.143,63.429q-6.857,8.571 -6.00,20.143t 9.429,18.429 l 616.286,513.429q 27.429,22.286 65.143,22.286t 65.143-22.286l 209.143-174.857l0.00,167.143 q0.00,12.00 7.714,19.714t 19.714,7.714l 164.571,0.00 q 12.00,0.00 19.714-7.714t 7.714-19.714l0.00-349.714 l 187.714-156.00q 8.571-6.857 9.429-18.429t-6.00-20.143z" horiz-adv-x="1426.2857142857142" data-tags="home" />
<glyph unicode="&#xe036;" d="M 109.714,187.429l 877.714,0.00 l0.00,658.286 l-356.571,0.00 q-34.286,0.00 -58.286,24.00t-24.00,58.286l0.00,356.571 l-438.857,0.00 l0.00-1097.143 zM 658.286,955.429l 256.286,0.00 l-256.286,256.286l0.00-256.286 zM 1097.143,845.714l0.00-685.714 q0.00-34.286 -24.00-58.286t-58.286-24.00l-932.571,0.00 q-34.286,0.00 -58.286,24.00t-24.00,58.286l0.00,1152.00 q0.00,34.286 24.00,58.286t 58.286,24.00l 466.286,0.00 q 34.286,0.00 75.429-17.143t 65.143-41.143l 349.714-349.714q 24.00-24.00 41.143-65.143t 17.143-75.429z" horiz-adv-x="1097.142857142857" data-tags="file" />
<glyph unicode="&#xe037;" d="M 932.571,708.571l0.00-54.857 q0.00-11.143 -8.143-19.286t-19.286-8.143l-329.143,0.00 q-11.143,0.00 -19.286,8.143t-8.143,19.286l0.00,384.00 q0.00,11.143 8.143,19.286t 19.286,8.143l 54.857,0.00 q 11.143,0.00 19.286-8.143t 8.143-19.286l0.00-301.714 l 246.857,0.00 q 11.143,0.00 19.286-8.143t 8.143-19.286zM 1097.143,736.00q0.00,89.143 -34.714,170.143t-93.857,140.143t-140.143,93.857t-170.143,34.714t-170.143-34.714 t-140.143-93.857t-93.857-140.143t-34.714-170.143t 34.714-170.143t 93.857-140.143t 140.143-93.857t 170.143-34.714t 170.143,34.714t 140.143,93.857t 93.857,140.143t 34.714,170.143zM 1316.571,736.00q0.00-179.143 -88.286-330.429t-239.571-239.571t-330.429-88.286t-330.429,88.286t-239.571,239.571t-88.286,330.429t 88.286,330.429t 239.571,239.571 t 330.429,88.286t 330.429-88.286t 239.571-239.571t 88.286-330.429z" horiz-adv-x="1316.5714285714284" data-tags="time" />
<glyph unicode="&#xe038;" d="M 1147.714,812.286q 14.571-35.143 -12.00-60.00l-384.00-384.00q-15.429-16.286 -38.571-16.286t-38.571,16.286l-384.00,384.00q-26.571,24.857 -12.00,60.00q 14.571,33.429 50.571,33.429l 219.429,0.00 l0.00,384.00 q0.00,22.286 16.286,38.571t 38.571,16.286l 219.429,0.00 q 22.286,0.00 38.571-16.286t 16.286-38.571l0.00-384.00 l 219.429,0.00 q 36.00,0.00 50.571-33.429zM 1398.857,626.286q 12.00,0.00 19.714-7.714t 7.714-19.714l0.00-493.714 q0.00-12.00 -7.714-19.714t-19.714-7.714l-1371.429,0.00 q-12.00,0.00 -19.714,7.714t-7.714,19.714l0.00,493.714 q0.00,12.00 7.714,19.714 t 19.714,7.714l 164.571,0.00 q 12.00,0.00 19.714-7.714t 7.714-19.714l0.00-301.714 l 987.429,0.00 l0.00,301.714 q0.00,12.00 7.714,19.714t 19.714,7.714l 164.571,0.00 z" horiz-adv-x="1426.2857142857142" data-tags="download" />
<glyph unicode="&#xe03b;" d="M 329.143,489.143l0.00-54.857 q0.00-11.143 -8.143-19.286t-19.286-8.143l-54.857,0.00 q-11.143,0.00 -19.286,8.143t-8.143,19.286l0.00,54.857 q0.00,11.143 8.143,19.286t 19.286,8.143l 54.857,0.00 q 11.143,0.00 19.286-8.143t 8.143-19.286zM 329.143,708.571l0.00-54.857 q0.00-11.143 -8.143-19.286t-19.286-8.143l-54.857,0.00 q-11.143,0.00 -19.286,8.143t-8.143,19.286l0.00,54.857 q0.00,11.143 8.143,19.286t 19.286,8.143l 54.857,0.00 q 11.143,0.00 19.286-8.143t 8.143-19.286z M 329.143,928.00l0.00-54.857 q0.00-11.143 -8.143-19.286t-19.286-8.143l-54.857,0.00 q-11.143,0.00 -19.286,8.143t-8.143,19.286l0.00,54.857 q0.00,11.143 8.143,19.286t 19.286,8.143l 54.857,0.00 q 11.143,0.00 19.286-8.143t 8.143-19.286zM 1316.571,489.143l0.00-54.857 q0.00-11.143 -8.143-19.286t-19.286-8.143l-822.857,0.00 q-11.143,0.00 -19.286,8.143t-8.143,19.286l0.00,54.857 q0.00,11.143 8.143,19.286t 19.286,8.143l 822.857,0.00 q 11.143,0.00 19.286-8.143t 8.143-19.286z M 1316.571,708.571l0.00-54.857 q0.00-11.143 -8.143-19.286t-19.286-8.143l-822.857,0.00 q-11.143,0.00 -19.286,8.143t-8.143,19.286l0.00,54.857 q0.00,11.143 8.143,19.286t 19.286,8.143l 822.857,0.00 q 11.143,0.00 19.286-8.143t 8.143-19.286zM 1316.571,928.00l0.00-54.857 q0.00-11.143 -8.143-19.286t-19.286-8.143l-822.857,0.00 q-11.143,0.00 -19.286,8.143t-8.143,19.286l0.00,54.857 q0.00,11.143 8.143,19.286t 19.286,8.143l 822.857,0.00 q 11.143,0.00 19.286-8.143 t 8.143-19.286zM 1426.286,324.571l0.00,713.143 q0.00,11.143 -8.143,19.286t-19.286,8.143l-1261.714,0.00 q-11.143,0.00 -19.286-8.143t-8.143-19.286l0.00-713.143 q0.00-11.143 8.143-19.286t 19.286-8.143l 1261.714,0.00 q 11.143,0.00 19.286,8.143t 8.143,19.286zM 1536.00,1257.143l0.00-932.571 q0.00-56.571 -40.286-96.857t-96.857-40.286l-1261.714,0.00 q-56.571,0.00 -96.857,40.286t-40.286,96.857l0.00,932.571 q0.00,56.571 40.286,96.857t 96.857,40.286l 1261.714,0.00 q 56.571,0.00 96.857-40.286 t 40.286-96.857z" data-tags="list-alt" />
<glyph unicode="&#xe03f;" d="M 329.143,187.429l 768.00,0.00 l0.00,219.429 l-768.00,0.00 l0.00-219.429 zM 329.143,736.00l 768.00,0.00 l0.00,329.143 l-137.143,0.00 q-34.286,0.00 -58.286,24.00t-24.00,58.286l0.00,137.143 l-548.571,0.00 l0.00-548.571 zM 1316.571,681.143q0.00,22.286 -16.286,38.571t-38.571,16.286t-38.571-16.286t-16.286-38.571t 16.286-38.571t 38.571-16.286t 38.571,16.286t 16.286,38.571zM 1426.286,681.143l0.00-356.571 q0.00-11.143 -8.143-19.286t-19.286-8.143l-192.00,0.00 l0.00-137.143 q0.00-34.286 -24.00-58.286t-58.286-24.00l-822.857,0.00 q-34.286,0.00 -58.286,24.00t-24.00,58.286 l0.00,137.143 l-192.00,0.00 q-11.143,0.00 -19.286,8.143t-8.143,19.286l0.00,356.571 q0.00,67.714 48.429,116.143t 116.143,48.429l 54.857,0.00 l0.00,466.286 q0.00,34.286 24.00,58.286t 58.286,24.00l 576.00,0.00 q 34.286,0.00 75.429-17.143t 65.143-41.143l 130.286-130.286q 24.00-24.00 41.143-65.143t 17.143-75.429l0.00-219.429 l 54.857,0.00 q 67.714,0.00 116.143-48.429t 48.429-116.143z" horiz-adv-x="1426.2857142857142" data-tags="print" />
<glyph unicode="&#xe041;" d="M 761.143,489.143l 99.429,99.429l-130.286,130.286l-99.429-99.429l0.00-48.00 l 82.286,0.00 l0.00-82.286 l 48.00,0.00 zM 1138.286,1106.286q-13.714,13.714 -28.286-0.857l-300.00-300.00q-14.571-14.571 -0.857-28.286t 28.286,0.857l 300.00,300.00q 14.571,14.571 0.857,28.286zM 1206.857,597.143l0.00-162.857 q0.00-102.00 -72.429-174.429t-174.429-72.429l-713.143,0.00 q-102.00,0.00 -174.429,72.429t-72.429,174.429l0.00,713.143 q0.00,102.00 72.429,174.429t 174.429,72.429l 713.143,0.00  q 54.00,0.00 100.286-21.429q 12.857-6.00 15.429-19.714q 2.571-14.571 -7.714-24.857l-42.00-42.00q-12.00-12.00 -27.429-6.857q-19.714,5.143 -38.571,5.143l-713.143,0.00 q-56.571,0.00 -96.857-40.286t-40.286-96.857l0.00-713.143 q0.00-56.571 40.286-96.857t 96.857-40.286l 713.143,0.00 q 56.571,0.00 96.857,40.286t 40.286,96.857l0.00,108.00 q0.00,11.143 7.714,18.857l 54.857,54.857q 12.857,12.857 30.00,6.00t 17.143-24.857zM 1124.571,1229.714l 246.857-246.857l-576.00-576.00l-246.857,0.00 l0.00,246.857 zM 1505.143,1116.571l-78.857-78.857 l-246.857,246.857l 78.857,78.857q 24.00,24.00 58.286,24.00t 58.286-24.00l 130.286-130.286q 24.00-24.00 24.00-58.286t-24.00-58.286z" data-tags="edit" />
<glyph unicode="&#xe042;" d="M 1206.857,656.286l0.00-222.00 q0.00-102.00 -72.429-174.429t-174.429-72.429l-713.143,0.00 q-102.00,0.00 -174.429,72.429t-72.429,174.429l0.00,713.143 q0.00,102.00 72.429,174.429t 174.429,72.429l 218.571,0.00 l0.00,0.00 q 11.143,0.00 19.286-8.143t 8.143-19.286q0.00-23.143 -22.286-27.429q-66.00-22.286 -114.00-51.429q-8.571-3.429 -13.714-3.429l-96.00,0.00 q-56.571,0.00 -96.857-40.286t-40.286-96.857l0.00-713.143 q0.00-56.571 40.286-96.857t 96.857-40.286l 713.143,0.00  q 56.571,0.00 96.857,40.286t 40.286,96.857l0.00,183.429 q0.00,16.286 15.429,24.857q 24.00,11.143 46.286,31.714q 13.714,13.714 30.00,6.857q 18.00-7.714 18.00-24.857zM 1410.00,1081.429l-329.143-329.143q-15.429-16.286 -38.571-16.286q-10.286,0.00 -21.429,4.286q-33.429,14.571 -33.429,50.571l0.00,164.571 l-137.143,0.00 q-276.857,0.00 -375.429-112.286q-102.00-117.429 -63.429-405.429q 2.571-19.714 -17.143-29.143q-6.857-1.714 -10.286-1.714q-13.714,0.00 -22.286,11.143q-8.571,12.00 -18.00,26.571t-33.857,58.714t-42.429,85.286 t-33.00,97.714t-15.00,104.571q0.00,42.00 3.00,78.00t 12.00,77.143t 24.00,75.429t 40.286,69.857t 58.714,63.429t 81.00,52.714t 106.714,41.571t 136.714,26.143t 168.429,9.429l 137.143,0.00 l0.00,164.571 q0.00,36.00 33.429,50.571q 11.143,4.286 21.429,4.286q 22.286,0.00 38.571-16.286l 329.143-329.143q 16.286-16.286 16.286-38.571t-16.286-38.571z" horiz-adv-x="1426.2857142857142" data-tags="share" />
<glyph unicode="&#xe043;" d="M 1206.857,706.857l0.00-272.571 q0.00-102.00 -72.429-174.429t-174.429-72.429l-713.143,0.00 q-102.00,0.00 -174.429,72.429t-72.429,174.429l0.00,713.143 q0.00,102.00 72.429,174.429t 174.429,72.429l 713.143,0.00 q 54.00,0.00 100.286-21.429q 12.857-6.00 15.429-19.714q 2.571-14.571 -7.714-24.857l-42.00-42.00q-8.571-8.571 -19.714-8.571q-2.571,0.00 -7.714,1.714q-19.714,5.143 -38.571,5.143l-713.143,0.00 q-56.571,0.00 -96.857-40.286t-40.286-96.857l0.00-713.143  q0.00-56.571 40.286-96.857t 96.857-40.286l 713.143,0.00 q 56.571,0.00 96.857,40.286t 40.286,96.857l0.00,217.714 q0.00,11.143 7.714,18.857l 54.857,54.857q 8.571,8.571 19.714,8.571q 5.143,0.00 10.286-2.571q 17.143-6.857 17.143-24.857zM 1404.857,1126.00l-697.714-697.714q-20.571-20.571 -48.857-20.571t-48.857,20.571l-368.571,368.571q-20.571,20.571 -20.571,48.857t 20.571,48.857l 94.286,94.286q 20.571,20.571 48.857,20.571t 48.857-20.571l 225.429-225.429l 554.571,554.571q 20.571,20.571 48.857,20.571t 48.857-20.571l 94.286-94.286 q 20.571-20.571 20.571-48.857t-20.571-48.857z" horiz-adv-x="1426.2857142857142" data-tags="check" />
<glyph unicode="&#xe044;" d="M 1536.00,736.00q0.00-22.286 -16.286-38.571l-219.429-219.429q-16.286-16.286 -38.571-16.286t-38.571,16.286t-16.286,38.571l0.00,109.714 l-329.143,0.00 l0.00-329.143 l 109.714,0.00 q 22.286,0.00 38.571-16.286t 16.286-38.571t-16.286-38.571l-219.429-219.429q-16.286-16.286 -38.571-16.286t-38.571,16.286l-219.429,219.429q-16.286,16.286 -16.286,38.571t 16.286,38.571t 38.571,16.286l 109.714,0.00 l0.00,329.143 l-329.143,0.00 l0.00-109.714 q0.00-22.286 -16.286-38.571t-38.571-16.286t-38.571,16.286l-219.429,219.429q-16.286,16.286 -16.286,38.571 t 16.286,38.571l 219.429,219.429q 16.286,16.286 38.571,16.286t 38.571-16.286t 16.286-38.571l0.00-109.714 l 329.143,0.00 l0.00,329.143 l-109.714,0.00 q-22.286,0.00 -38.571,16.286t-16.286,38.571t 16.286,38.571l 219.429,219.429q 16.286,16.286 38.571,16.286t 38.571-16.286l 219.429-219.429q 16.286-16.286 16.286-38.571t-16.286-38.571t-38.571-16.286l-109.714,0.00 l0.00-329.143 l 329.143,0.00 l0.00,109.714 q0.00,22.286 16.286,38.571t 38.571,16.286t 38.571-16.286l 219.429-219.429q 16.286-16.286 16.286-38.571z" data-tags="move" />
<glyph unicode="&#xe04b;" d="M 795.429,790.857q0.00,12.00 -7.714,19.714t-19.714,7.714q-56.571,0.00 -96.857-40.286t-40.286-96.857q0.00-12.00 7.714-19.714t 19.714-7.714t 19.714,7.714t 7.714,19.714q0.00,34.286 24.00,58.286t 58.286,24.00q 12.00,0.00 19.714,7.714t 7.714,19.714zM 987.429,679.429q0.00-90.857 -64.286-155.143t-155.143-64.286t-155.143,64.286t-64.286,155.143t 64.286,155.143t 155.143,64.286t 155.143-64.286t 64.286-155.143zM 109.714,187.429l 1316.571,0.00 l0.00,109.714 l-1316.571,0.00 l0.00-109.714 zM 1097.143,679.429q0.00,136.286 -96.429,232.714 t-232.714,96.429t-232.714-96.429t-96.429-232.714t 96.429-232.714t 232.714-96.429t 232.714,96.429t 96.429,232.714zM 219.429,1229.714l 329.143,0.00 l0.00,109.714 l-329.143,0.00 l0.00-109.714 zM 109.714,1065.143l 1316.571,0.00 l0.00,101.143 l0.00,118.286 l-709.714,0.00 l-54.857-109.714l-552.00,0.00 l0.00-109.714 zM 1536.00,1284.571l0.00-1097.143 q0.00-45.429 -32.143-77.571t-77.571-32.143l-1316.571,0.00 q-45.429,0.00 -77.571,32.143t-32.143,77.571l0.00,1097.143  q0.00,45.429 32.143,77.571t 77.571,32.143l 1316.571,0.00 q 45.429,0.00 77.571-32.143t 32.143-77.571z" data-tags="camara" />
<glyph unicode="&#xe052;" d="M 768.00,736.00q0.00,90.857 -64.286,155.143t-155.143,64.286t-155.143-64.286t-64.286-155.143t 64.286-155.143t 155.143-64.286t 155.143,64.286t 64.286,155.143zM 1426.286,297.143q0.00,44.571 -32.571,77.143t-77.143,32.571t-77.143-32.571t-32.571-77.143q0.00-45.429 32.143-77.571t 77.571-32.143t 77.571,32.143t 32.143,77.571zM 1426.286,1174.857q0.00,44.571 -32.571,77.143t-77.143,32.571t-77.143-32.571t-32.571-77.143q0.00-45.429 32.143-77.571t 77.571-32.143 t 77.571,32.143t 32.143,77.571zM 1097.143,814.00l0.00-158.571 q0.00-8.571 -6.00-16.714t-13.714-9.00l-132.857-20.571q-9.429-30.00 -27.429-65.143q 29.143-41.143 77.143-98.571q 6.00-8.571 6.00-17.143q0.00-10.286 -6.00-16.286q-19.714-25.714 -70.714-76.714t-67.286-51.00q-9.429,0.00 -18.00,6.00l-98.571,77.143q-31.714-16.286 -66.00-26.571q-9.429-92.571 -19.714-132.857q-6.00-20.571 -25.714-20.571l-159.429,0.00 q-9.429,0.00 -17.143,6.429t-8.571,15.00 l-19.714,131.143q-29.143,8.571 -64.286,26.571l-101.143-76.286q-6.00-6.00 -17.143-6.00q-9.429,0.00 -18.00,6.857q-123.429,114.00 -123.429,137.143q0.00,7.714 6.00,16.286q 8.571,12.00 35.143,45.429t 40.286,52.286q-19.714,37.714 -30.00,70.286l-130.286,20.571q-8.571,0.857 -14.571,8.143t-6.00,16.714l0.00,158.571 q0.00,8.571 6.00,16.714t 13.714,9.00l 132.857,20.571q 9.429,30.00 27.429,65.143q-29.143,41.143 -77.143,98.571q-6.00,9.429 -6.00,17.143q0.00,10.286 6.00,17.143q 18.857,25.714 70.286,76.286t 67.714,50.571q 9.429,0.00 18.00-6.00 l 98.571-77.143q 29.143,15.429 66.00,27.429q 9.429,92.571 19.714,132.00q 6.00,20.571 25.714,20.571l 159.429,0.00 q 9.429,0.00 17.143-6.429t 8.571-15.00l 19.714-131.143q 29.143-8.571 64.286-26.571l 101.143,76.286q 6.857,6.00 17.143,6.00q 9.429,0.00 18.00-6.857q 123.429-114.00 123.429-137.143q0.00-7.714 -6.00-16.286q-10.286-13.714 -36.00-46.286t-38.571-51.429q 19.714-41.143 29.143-70.286l 130.286-19.714q 8.571-1.714 14.571-9.00t 6.00-16.714zM 1645.714,357.143l0.00-120.00 q0.00-13.714 -127.714-26.571 q-10.286-23.143 -25.714-44.571q 43.714-96.857 43.714-118.286q0.00-3.429 -3.429-6.00q-104.571-60.857 -106.286-60.857q-6.857,0.00 -39.429,40.286t-44.571,58.286q-17.143-1.714 -25.714-1.714t-25.714,1.714q-12.00-18.00 -44.571-58.286t-39.429-40.286q-1.714,0.00 -106.286,60.857q-3.429,2.571 -3.429,6.00q0.00,21.429 43.714,118.286q-15.429,21.429 -25.714,44.571q-127.714,12.857 -127.714,26.571l0.00,120.00 q0.00,13.714 127.714,26.571q 11.143,24.857 25.714,44.571q-43.714,96.857 -43.714,118.286q0.00,3.429 3.429,6.00q 3.429,1.714 30.00,17.143 t 50.571,29.143t 25.714,13.714q 6.857,0.00 39.429-39.857t 44.571-57.857q 17.143,1.714 25.714,1.714t 25.714-1.714q 43.714,60.857 78.857,96.00l 5.143,1.714q 3.429,0.00 106.286-60.00q 3.429-2.571 3.429-6.00q0.00-21.429 -43.714-118.286q 14.571-19.714 25.714-44.571q 127.714-12.857 127.714-26.571zM 1645.714,1234.857l0.00-120.00 q0.00-13.714 -127.714-26.571q-10.286-23.143 -25.714-44.571q 43.714-96.857 43.714-118.286q0.00-3.429 -3.429-6.00q-104.571-60.857 -106.286-60.857q-6.857,0.00 -39.429,40.286t-44.571,58.286 q-17.143-1.714 -25.714-1.714t-25.714,1.714q-12.00-18.00 -44.571-58.286t-39.429-40.286q-1.714,0.00 -106.286,60.857q-3.429,2.571 -3.429,6.00q0.00,21.429 43.714,118.286q-15.429,21.429 -25.714,44.571q-127.714,12.857 -127.714,26.571l0.00,120.00 q0.00,13.714 127.714,26.571q 11.143,24.857 25.714,44.571q-43.714,96.857 -43.714,118.286q0.00,3.429 3.429,6.00q 3.429,1.714 30.00,17.143t 50.571,29.143t 25.714,13.714q 6.857,0.00 39.429-39.857t 44.571-57.857q 17.143,1.714 25.714,1.714t 25.714-1.714q 43.714,60.857 78.857,96.00l 5.143,1.714q 3.429,0.00 106.286-60.00 q 3.429-2.571 3.429-6.00q0.00-21.429 -43.714-118.286q 14.571-19.714 25.714-44.571q 127.714-12.857 127.714-26.571z" horiz-adv-x="1645.7142857142856" data-tags="cogs" />
<glyph unicode="&#xe054;" d="M 219.429,352.00q0.00,22.286 -16.286,38.571t-38.571,16.286t-38.571-16.286t-16.286-38.571t 16.286-38.571t 38.571-16.286t 38.571,16.286t 16.286,38.571zM 1206.857,845.714q0.00,43.714 -33.429,76.714t-76.286,33.00l-301.714,0.00 q0.00,49.714 41.143,136.714t 41.143,137.571q0.00,84.00 -27.429,124.286t-109.714,40.286q-22.286-22.286 -32.571-72.857t-26.143-107.571t-51.00-93.857q-18.857-19.714 -66.00-78.00q-3.429-4.286 -19.714-25.714t-27.00-35.143t-29.571-36.429 t-34.286-37.714t-33.00-30.429t-34.286-23.143t-30.429-7.714l-27.429,0.00 l0.00-548.571 l 27.429,0.00 q 11.143,0.00 27.00-2.571t 28.286-5.571t 32.571-9.429t 30.00-9.857t 30.429-10.714t 24.857-9.00q 180.857-62.571 293.143-62.571l 103.714,0.00 q 164.571,0.00 164.571,143.143q0.00,22.286 -4.286,48.00q 25.714,13.714 40.714,45.00t 15.00,63.00t-15.429,59.143q 45.429,42.857 45.429,102.00q0.00,21.429 -8.571,47.571t-21.429,40.714q 27.429,0.857 45.857,40.286t 18.429,69.429zM 1316.571,846.571 q0.00-76.286 -42.00-139.714q 7.714-28.286 7.714-59.143q0.00-66.00 -32.571-123.429q 2.571-18.00 2.571-36.857q0.00-86.571 -51.429-152.571q 0.857-119.143 -72.857-188.143t-194.571-69.00l-30.857,0.00 l-79.714,0.00 q-82.286,0.00 -162.429,19.286t-185.571,56.143q-99.429,34.286 -118.286,34.286l-246.857,0.00 q-45.429,0.00 -77.571,32.143t-32.143,77.571l0.00,548.571 q0.00,45.429 32.143,77.571t 77.571,32.143l 234.857,0.00 q 30.857,20.571 117.429,132.857q 49.714,64.286 91.714,109.714 q 20.571,21.429 30.429,73.286t 26.143,108.429t 53.143,92.571q 33.429,31.714 77.143,31.714q 72.00,0.00 129.429-27.857t 87.429-87.00t 30.00-159.429q0.00-79.714 -41.143-164.571l 150.857,0.00 q 89.143,0.00 154.286-65.143t 65.143-153.429z" horiz-adv-x="1316.5714285714284" data-tags="thumb-up" />
<glyph unicode="&#xe055;" d="M 1426.286,982.857l0.00-603.429 q0.00-78.857 -56.571-135.429t-135.429-56.571l-1042.286,0.00 q-78.857,0.00 -135.429,56.571t-56.571,135.429l0.00,822.857 q0.00,78.857 56.571,135.429t 135.429,56.571l 274.286,0.00 q 78.857,0.00 135.429-56.571t 56.571-135.429l0.00-27.429 l 576.00,0.00 q 78.857,0.00 135.429-56.571t 56.571-135.429z" horiz-adv-x="1426.2857142857142" data-tags="folder" />
<glyph unicode="&#xe056;" d="M 1610.571,688.00q0.00-26.571 -26.571-56.571l-288.00-339.429q-36.857-43.714 -103.286-74.143t-123.00-30.429l-932.571,0.00 q-29.143,0.00 -51.857,11.143t-22.714,36.857q0.00,26.571 26.571,56.571l 288.00,339.429q 36.857,43.714 103.286,74.143t 123.00,30.429l 932.571,0.00 q 29.143,0.00 51.857-11.143t 22.714-36.857zM 1316.571,982.857l0.00-137.143 l-713.143,0.00 q-80.571,0.00 -168.857-40.714t-140.571-102.429l-288.857-339.429l-4.286-5.143q0.00,3.429 -0.429,10.714 t-0.429,10.714l0.00,822.857 q0.00,78.857 56.571,135.429t 135.429,56.571l 274.286,0.00 q 78.857,0.00 135.429-56.571t 56.571-135.429l0.00-27.429 l 466.286,0.00 q 78.857,0.00 135.429-56.571t 56.571-135.429z" horiz-adv-x="1645.7142857142856" data-tags="folder-open" />
<glyph unicode="&#xe059;" d="M 329.143,242.286q0.00,22.286 -16.286,38.571t-38.571,16.286t-38.571-16.286t-16.286-38.571t 16.286-38.571t 38.571-16.286t 38.571,16.286t 16.286,38.571zM 881.143,602.286l-584.571-584.571q-31.714-31.714 -77.143-31.714q-44.571,0.00 -78.00,31.714l-90.857,92.571q-32.571,30.857 -32.571,77.143q0.00,45.429 32.571,78.00l 583.714,583.714q 33.429-84.00 98.143-148.714t 148.714-98.143zM 1424.571,975.143q0.00-33.429 -19.714-90.857q-40.286-114.857 -141.00-186.429 t-221.571-71.571q-158.571,0.00 -271.286,112.714t-112.714,271.286t 112.714,271.286t 271.286,112.714q 49.714,0.00 104.143-14.143t 92.143-39.857q 13.714-9.429 13.714-24.00t-13.714-24.00l-251.143-144.857l0.00-192.00 l 165.429-91.714q 4.286,2.571 67.714,41.571t 116.143,69.429t 60.429,30.429q 12.857,0.00 20.143-8.571t 7.286-21.429z" horiz-adv-x="1426.2857142857142" data-tags="wrench" />
<glyph unicode="&#xe05e;" d="M 425.143,297.143q0.00-51.429 -36.429-87.429t-87.00-36.00q-51.429,0.00 -87.429,36.00t-36.00,87.429t 36.00,87.429t 87.429,36.00q 50.571,0.00 87.00-36.00t 36.429-87.429zM 795.429,132.571q0.00-45.429 -32.143-77.571t-77.571-32.143t-77.571,32.143t-32.143,77.571t 32.143,77.571t 77.571,32.143t 77.571-32.143t 32.143-77.571zM 274.286,681.143q0.00-56.571 -40.286-96.857t-96.857-40.286t-96.857,40.286t-40.286,96.857 t 40.286,96.857t 96.857,40.286t 96.857-40.286t 40.286-96.857zM 1165.714,297.143q0.00-39.429 -28.286-67.714t-67.714-28.286t-67.714,28.286t-28.286,67.714t 28.286,67.714t 67.714,28.286t 67.714-28.286t 28.286-67.714zM 452.571,1065.143q0.00-62.571 -44.143-106.714t-106.714-44.143t-106.714,44.143t-44.143,106.714t 44.143,106.714t 106.714,44.143t 106.714-44.143t 44.143-106.714zM 850.286,1229.714q0.00-68.571 -48.00-116.571t-116.571-48.00 t-116.571,48.00t-48.00,116.571t 48.00,116.571t 116.571,48.00t 116.571-48.00t 48.00-116.571zM 1316.571,681.143q0.00-34.286 -24.00-58.286t-58.286-24.00t-58.286,24.00t-24.00,58.286t 24.00,58.286t 58.286,24.00t 58.286-24.00t 24.00-58.286zM 1138.286,1065.143q0.00-28.286 -20.143-48.429t-48.429-20.143t-48.429,20.143t-20.143,48.429t 20.143,48.429t 48.429,20.143t 48.429-20.143t 20.143-48.429z" horiz-adv-x="1344" data-tags="spinner" />
<glyph unicode="&#xe05f;" d="M 1526.571,706.00q0.00,30.00 -45.429,30.00l-932.571,0.00 q-34.286,0.00 -73.286-18.429t-61.286-45.00l-252.00-311.143q-15.429-20.571 -15.429-34.286q0.00-30.00 45.429-30.00l 932.571,0.00 q 34.286,0.00 73.714,18.857t 60.857,45.429l 252.00,311.143q 15.429,18.857 15.429,33.429zM 548.571,845.714l 658.286,0.00 l0.00,137.143 q0.00,34.286 -24.00,58.286t-58.286,24.00l-493.714,0.00 q-34.286,0.00 -58.286,24.00t-24.00,58.286l0.00,54.857 q0.00,34.286 -24.00,58.286t-58.286,24.00l-274.286,0.00 q-34.286,0.00 -58.286-24.00t-24.00-58.286 l0.00-731.143 l 219.429,270.00q 37.714,45.429 99.429,75.00t 120.00,29.571zM 1636.286,706.00q0.00-53.143 -39.429-102.857l-252.857-311.143q-36.857-45.429 -99.429-75.00t-120.00-29.571l-932.571,0.00 q-78.857,0.00 -135.429,56.571t-56.571,135.429l0.00,822.857 q0.00,78.857 56.571,135.429t 135.429,56.571l 274.286,0.00 q 78.857,0.00 135.429-56.571t 56.571-135.429l0.00-27.429 l 466.286,0.00 q 78.857,0.00 135.429-56.571t 56.571-135.429l0.00-137.143 l 164.571,0.00 q 46.286,0.00 84.857-21.00t 57.429-60.429q 12.857-27.429 12.857-58.286z " horiz-adv-x="1645.7142857142856" data-tags="folder-open-alt" />
<glyph unicode="&#xe060;" d="M 1316.571,379.429l0.00,603.429 q0.00,34.286 -24.00,58.286t-58.286,24.00l-603.429,0.00 q-34.286,0.00 -58.286,24.00t-24.00,58.286l0.00,54.857 q0.00,34.286 -24.00,58.286t-58.286,24.00l-274.286,0.00 q-34.286,0.00 -58.286-24.00t-24.00-58.286l0.00-822.857 q0.00-34.286 24.00-58.286t 58.286-24.00l 1042.286,0.00 q 34.286,0.00 58.286,24.00t 24.00,58.286zM 1426.286,982.857l0.00-603.429 q0.00-78.857 -56.571-135.429t-135.429-56.571l-1042.286,0.00 q-78.857,0.00 -135.429,56.571t-56.571,135.429l0.00,822.857 q0.00,78.857 56.571,135.429t 135.429,56.571l 274.286,0.00  q 78.857,0.00 135.429-56.571t 56.571-135.429l0.00-27.429 l 576.00,0.00 q 78.857,0.00 135.429-56.571t 56.571-135.429z" horiz-adv-x="1426.2857142857142" data-tags="folder-close-alt" />
<glyph unicode="&#xe063;" d="M 630.857,1010.286q0.00-11.143 -8.143-19.286t-19.286-8.143t-19.286,8.143t-8.143,19.286q0.00,39.429 -46.286,60.857t-90.857,21.429q-11.143,0.00 -19.286,8.143t-8.143,19.286t 8.143,19.286t 19.286,8.143q 42.857,0.00 85.286-13.714t 74.571-46.286t 32.143-77.143zM 768.00,1010.286q0.00,61.714 -29.571,114.857t-77.143,87.00t-105.429,53.143t-117.00,19.286t-117.00-19.286t-105.429-53.143t-77.143-87.00t-29.571-114.857 q0.00-86.571 58.286-154.286q 8.571-9.429 26.143-28.286t 26.143-28.286q 109.714-131.143 120.857-255.429l 195.429,0.00 q 11.143,124.286 120.857,255.429q 8.571,9.429 26.143,28.286t 26.143,28.286q 58.286,67.714 58.286,154.286zM 877.714,1010.286q0.00-132.857 -88.286-229.714q-38.571-42.00 -63.857-74.571t-51.00-81.857t-29.143-92.143q 40.286-24.00 40.286-70.286q0.00-31.714 -21.429-54.857q 21.429-23.143 21.429-54.857q0.00-44.571 -38.571-69.429q 11.143-19.714 11.143-40.286 q0.00-39.429 -27.00-60.857t-66.429-21.429q-17.143-37.714 -51.429-60.00t-74.571-22.286t-74.571,22.286t-51.429,60.00q-39.429,0.00 -66.429,21.429t-27.00,60.857q0.00,20.571 11.143,40.286q-38.571,24.857 -38.571,69.429q0.00,31.714 21.429,54.857q-21.429,23.143 -21.429,54.857q0.00,46.286 40.286,70.286q-3.429,42.857 -29.143,92.143t-51.00,81.857t-63.857,74.571q-88.286,96.857 -88.286,229.714q0.00,84.857 38.143,158.143t 100.286,121.714t 140.571,76.286t 159.857,27.857 t 159.857-27.857t 140.571-76.286t 100.286-121.714t 38.143-158.143z" horiz-adv-x="877.7142857142857" data-tags="light-bulb" />
<glyph unicode="&#xe066;" d="M 658.286,955.429q0.00,90.857 -64.286,155.143t-155.143,64.286t-155.143-64.286t-64.286-155.143t 64.286-155.143t 155.143-64.286t 155.143,64.286t 64.286,155.143zM 877.714,955.429q0.00-93.429 -28.286-153.429l-312.00-663.429q-13.714-28.286 -40.714-44.571t-57.857-16.286t-57.857,16.286t-39.857,44.571l-312.857,663.429q-28.286,60.00 -28.286,153.429q0.00,181.714 128.571,310.286t 310.286,128.571t 310.286-128.571t 128.571-310.286z" horiz-adv-x="877.7142857142857" data-tags="map-marker" />
<glyph unicode="&#xe067;" d="M 438.857,516.571q0.00,30.857 -17.143,59.143q-0.857,0.857 -13.286,19.286t-21.857,32.571t-21.429,37.714t-18.00,43.286q-3.429,13.714 -18.00,13.714t-18.00-13.714q-6.00-19.714 -18.00-43.286t-21.429-37.714t-21.857-32.571t-13.286-19.286q-17.143-28.286 -17.143-59.143q0.00-45.429 32.143-77.571t 77.571-32.143t 77.571,32.143t 32.143,77.571zM 877.714,626.286q0.00-181.714 -128.571-310.286t-310.286-128.571t-310.286,128.571t-128.571,310.286 q0.00,124.286 69.429,235.714q 5.143,7.714 53.571,77.571t 86.571,129.429t 85.286,152.571t 71.143,172.714q 7.714,25.714 29.143,40.286t 43.714,14.571t 44.143-14.571t 28.714-40.286q 24.00-79.714 71.143-172.714t 85.286-152.571t 86.571-129.429t 53.571-77.571q 69.429-108.857 69.429-235.714z" horiz-adv-x="877.7142857142857" data-tags="tint" />
<glyph unicode="&#xe068;" d="M 658.286,1394.286q 179.143,0.00 330.429-88.286t 239.571-239.571t 88.286-330.429t-88.286-330.429t-239.571-239.571t-330.429-88.286t-330.429,88.286t-239.571,239.571t-88.286,330.429t 88.286,330.429t 239.571,239.571t 330.429,88.286zM 219.429,736.00q0.00-89.143 34.714-170.143t 93.857-140.143t 140.143-93.857t 170.143-34.714l0.00,877.714 q-89.143,0.00 -170.143-34.714 t-140.143-93.857t-93.857-140.143t-34.714-170.143z" horiz-adv-x="1316.5714285714284" data-tags="adjust" />
<glyph unicode="&#xe06c;" d="M 109.714,77.714l 246.857,0.00 l0.00,246.857 l-246.857,0.00 l0.00-246.857 zM 411.429,77.714l 274.286,0.00 l0.00,246.857 l-274.286,0.00 l0.00-246.857 zM 109.714,379.429l 246.857,0.00 l0.00,274.286 l-246.857,0.00 l0.00-274.286 zM 411.429,379.429l 274.286,0.00 l0.00,274.286 l-274.286,0.00 l0.00-274.286 zM 109.714,708.571l 246.857,0.00 l0.00,246.857 l-246.857,0.00 l0.00-246.857 zM 740.571,77.714l 274.286,0.00 l0.00,246.857 l-274.286,0.00 l0.00-246.857 zM 411.429,708.571l 274.286,0.00 l0.00,246.857 l-274.286,0.00 l0.00-246.857 zM 1069.714,77.714l 246.857,0.00 l0.00,246.857 l-246.857,0.00 l0.00-246.857 zM 740.571,379.429l 274.286,0.00 l0.00,274.286 l-274.286,0.00 l0.00-274.286 z M 438.857,1120.00l0.00,246.857 q0.00,11.143 -8.143,19.286t-19.286,8.143l-54.857,0.00 q-11.143,0.00 -19.286-8.143t-8.143-19.286l0.00-246.857 q0.00-11.143 8.143-19.286t 19.286-8.143l 54.857,0.00 q 11.143,0.00 19.286,8.143t 8.143,19.286zM 1069.714,379.429l 246.857,0.00 l0.00,274.286 l-246.857,0.00 l0.00-274.286 zM 740.571,708.571l 274.286,0.00 l0.00,246.857 l-274.286,0.00 l0.00-246.857 zM 1069.714,708.571l 246.857,0.00 l0.00,246.857 l-246.857,0.00 l0.00-246.857 zM 1097.143,1120.00l0.00,246.857 q0.00,11.143 -8.143,19.286t-19.286,8.143l-54.857,0.00  q-11.143,0.00 -19.286-8.143t-8.143-19.286l0.00-246.857 q0.00-11.143 8.143-19.286t 19.286-8.143l 54.857,0.00 q 11.143,0.00 19.286,8.143t 8.143,19.286zM 1426.286,1174.857l0.00-1097.143 q0.00-44.571 -32.571-77.143t-77.143-32.571l-1206.857,0.00 q-44.571,0.00 -77.143,32.571t-32.571,77.143l0.00,1097.143 q0.00,44.571 32.571,77.143t 77.143,32.571l 109.714,0.00 l0.00,82.286 q0.00,56.571 40.286,96.857t 96.857,40.286l 54.857,0.00 q 56.571,0.00 96.857-40.286t 40.286-96.857l0.00-82.286 l 329.143,0.00 l0.00,82.286 q0.00,56.571 40.286,96.857t 96.857,40.286 l 54.857,0.00 q 56.571,0.00 96.857-40.286t 40.286-96.857l0.00-82.286 l 109.714,0.00 q 44.571,0.00 77.143-32.571t 32.571-77.143z" horiz-adv-x="1426.2857142857142" data-tags="calendar" />
<glyph unicode="&#xe06d;" d="M 570.857,1091.714q-51.429-78.857 -117.429-234.00q-18.857,38.571 -31.714,62.143t-34.714,54.429t-43.714,48.429t-54.00,30.00t-69.857,12.429l-192.00,0.00 q-12.00,0.00 -19.714,7.714t-7.714,19.714l0.00,164.571 q0.00,12.00 7.714,19.714t 19.714,7.714l 192.00,0.00 q 214.286,0.00 351.429-192.857zM 1536.00,406.857q0.00-12.00 -7.714-19.714l-274.286-274.286q-7.714-7.714 -19.714-7.714q-11.143,0.00 -19.286,8.143t-8.143,19.286l0.00,164.571 q-27.429,0.00 -72.857-0.429t-69.429-0.857t-62.571,0.857 t-60.857,4.286t-54.857,9.00t-54.00,15.857t-49.714,24.429t-50.571,34.286t-47.143,45.857t-48.00,59.571q 50.571,79.714 116.571,234.00q 18.857-38.571 31.714-62.143t 34.714-54.429t 43.714-48.429t 54.00-30.00t 69.857-12.429l 219.429,0.00 l0.00,164.571 q0.00,12.00 7.714,19.714t 19.714,7.714q 10.286,0.00 20.571-8.571l 273.429-273.429q 7.714-7.714 7.714-19.714zM 1536.00,1174.857q0.00-12.00 -7.714-19.714l-274.286-274.286q-7.714-7.714 -19.714-7.714q-11.143,0.00 -19.286,8.143t-8.143,19.286 l0.00,164.571 l-219.429,0.00 q-41.143,0.00 -74.571-12.857t-59.143-38.571t-43.714-52.714t-38.571-66.429q-27.429-53.143 -66.857-146.571q-24.857-56.571 -42.429-95.143t-46.286-90.00t-54.857-85.714t-63.429-71.143t-77.143-58.714t-91.286-36.00t-109.714-14.143l-192.00,0.00 q-12.00,0.00 -19.714,7.714t-7.714,19.714l0.00,164.571 q0.00,12.00 7.714,19.714t 19.714,7.714l 192.00,0.00 q 41.143,0.00 74.571,12.857t 59.143,38.571t 43.714,52.714t 38.571,66.429q 27.429,53.143 66.857,146.571q 24.857,56.571 42.429,95.143 t 46.286,90.00t 54.857,85.714t 63.429,71.143t 77.143,58.714t 91.286,36.00t 109.714,14.143l 219.429,0.00 l0.00,164.571 q0.00,12.00 7.714,19.714t 19.714,7.714q 10.286,0.00 20.571-8.571l 273.429-273.429q 7.714-7.714 7.714-19.714z" data-tags="random" />
<glyph unicode="&#xe06e;" d="M 1097.143,214.857q0.00-11.143 -8.143-19.286t-19.286-8.143l-822.857,0.00 q-6.857,0.00 -11.571,1.714t-7.714,6.00t-4.714,6.857t-2.571,9.857t-0.857,9.857l0.00,11.143 l0.00,9.429 l0.00,137.143 l0.00,356.571 l-164.571,0.00 q-22.286,0.00 -38.571,16.286t-16.286,38.571q0.00,20.571 12.857,35.143l 274.286,329.143q 16.286,18.857 42.00,18.857t 42.00-18.857l 274.286-329.143q 12.857-14.571 12.857-35.143q0.00-22.286 -16.286-38.571t-38.571-16.286l-164.571,0.00 l0.00-329.143 l 493.714,0.00 q 13.714,0.00 21.429-9.429l 137.143-164.571q 6.00-9.429 6.00-18.00 zM 1645.714,571.429q0.00-20.571 -12.857-35.143l-274.286-329.143q-17.143-19.714 -42.00-19.714t-42.00,19.714l-274.286,329.143q-12.857,14.571 -12.857,35.143q0.00,22.286 16.286,38.571t 38.571,16.286l 164.571,0.00 l0.00,329.143 l-493.714,0.00 q-13.714,0.00 -21.429,10.286l-137.143,164.571q-6.00,7.714 -6.00,17.143q0.00,11.143 8.143,19.286t 19.286,8.143l 822.857,0.00 q 6.857,0.00 11.571-1.714t 7.714-6.00t 4.714-6.857t 2.571-9.857t 0.857-9.857l0.00-11.143 l0.00-9.429 l0.00-137.143 l0.00-356.571 l 164.571,0.00 q 22.286,0.00 38.571-16.286t 16.286-38.571z " horiz-adv-x="1645.7142857142856" data-tags="retweet" />
<glyph unicode="&#xe06f;" d="M 713.143,1065.143q0.00,68.571 -48.00,116.571t-116.571,48.00t-116.571-48.00t-48.00-116.571q0.00-36.00 16.286-71.143q-35.143,16.286 -71.143,16.286q-68.571,0.00 -116.571-48.00t-48.00-116.571t 48.00-116.571t 116.571-48.00t 116.571,48.00t 48.00,116.571q0.00,36.00 -16.286,71.143q 35.143-16.286 71.143-16.286q 68.571,0.00 116.571,48.00t 48.00,116.571zM 1442.571,461.714q0.00-14.571 -42.00-56.571t-56.571-42.00q-7.714,0.00 -24.429,13.714t-31.286,28.286t-33.00,34.286t-21.00,22.286 l-82.286-82.286l 188.571-188.571q 24.00-24.00 24.00-58.286q0.00-36.00 -33.429-69.429t-69.429-33.429q-34.286,0.00 -58.286,24.00l-575.143,575.143q-150.857-112.286 -312.857-112.286q-139.714,0.00 -227.571,87.857t-87.857,227.571q0.00,137.143 81.429,268.286t 212.571,212.571t 268.286,81.429q 139.714,0.00 227.571-87.857t 87.857-227.571q0.00-162.00 -112.286-312.857l 304.286-304.286l 82.286,82.286q-2.571,2.571 -22.286,21.00t-34.286,33.00t-28.286,31.286 t-13.714,24.429q0.00,14.571 42.00,56.571t 56.571,42.00q 11.143,0.00 19.714-8.571q 5.143-5.143 39.429-38.143t 70.286-68.143t 74.143-73.714t 62.571-66.857t 24.429-35.143z" data-tags="key" />
<glyph unicode="&#xe071;" d="M 1508.571,1394.286q 56.571,0.00 96.857-40.286t 40.286-96.857l0.00-1042.286 q0.00-56.571 -40.286-96.857t-96.857-40.286l-1371.429,0.00 q-56.571,0.00 -96.857,40.286t-40.286,96.857l0.00,1042.286 q0.00,56.571 40.286,96.857t 96.857,40.286l 1371.429,0.00 zM 137.143,1284.571q-11.143,0.00 -19.286-8.143t-8.143-19.286l0.00-192.00 l 1426.286,0.00 l0.00,192.00 q0.00,11.143 -8.143,19.286t-19.286,8.143l-1371.429,0.00 zM 1508.571,187.429q 11.143,0.00 19.286,8.143t 8.143,19.286l0.00,521.143 l-1426.286,0.00 l0.00-521.143  q0.00-11.143 8.143-19.286t 19.286-8.143l 1371.429,0.00 zM 219.429,297.143l0.00,109.714 l 219.429,0.00 l0.00-109.714 l-219.429,0.00 zM 548.571,297.143l0.00,109.714 l 329.143,0.00 l0.00-109.714 l-329.143,0.00 z" horiz-adv-x="1645.7142857142856" data-tags="credit-card" />
<glyph unicode="&#xe073;" d="M 891.429,461.714q0.00-28.286 -20.143-48.429t-48.429-20.143t-48.429,20.143t-20.143,48.429t 20.143,48.429t 48.429,20.143t 48.429-20.143t 20.143-48.429zM 1110.857,461.714q0.00-28.286 -20.143-48.429t-48.429-20.143t-48.429,20.143t-20.143,48.429t 20.143,48.429t 48.429,20.143t 48.429-20.143t 20.143-48.429zM 1206.857,324.571l0.00,274.286 q0.00,11.143 -8.143,19.286t-19.286,8.143 l-1042.286,0.00 q-11.143,0.00 -19.286-8.143t-8.143-19.286l0.00-274.286 q0.00-11.143 8.143-19.286t 19.286-8.143l 1042.286,0.00 q 11.143,0.00 19.286,8.143t 8.143,19.286zM 152.571,736.00l 1011.429,0.00 l-134.571,413.143q-3.429,11.143 -13.714,18.429t-22.286,7.286l-670.286,0.00 q-12.00,0.00 -22.286-7.286t-13.714-18.429zM 1316.571,598.857l0.00-274.286 q0.00-56.571 -40.286-96.857t-96.857-40.286l-1042.286,0.00 q-56.571,0.00 -96.857,40.286t-40.286,96.857l0.00,274.286 q0.00,21.429 13.714,64.286 l 168.857,519.429q 14.571,45.429 54.00,73.714t 86.571,28.286l 670.286,0.00 q 47.143,0.00 86.571-28.286t 54.00-73.714l 168.857-519.429q 13.714-42.857 13.714-64.286z" horiz-adv-x="1316.5714285714284" data-tags="hdd" />
<glyph unicode="&#xe074;" d="M 726.857,50.286q0.00,13.714 -13.714,13.714q-50.571,0.00 -87.00,36.429t-36.429,87.00q0.00,13.714 -13.714,13.714t-13.714-13.714q0.00-62.571 44.143-106.714t 106.714-44.143q 13.714,0.00 13.714,13.714zM 156.857,297.143l 1112.571,0.00 q-140.571,155.143 -211.286,352.714t-70.714,415.286q0.00,219.429 -274.286,219.429t-274.286-219.429q0.00-217.714 -70.714-415.286t-211.286-352.714zM 1426.286,297.143q0.00-44.571 -32.571-77.143t-77.143-32.571 l-384.00,0.00 q0.00-90.857 -64.286-155.143t-155.143-64.286t-155.143,64.286t-64.286,155.143l-384.00,0.00 q-44.571,0.00 -77.143,32.571t-32.571,77.143q 162.857,138.00 246.00,340.714t 83.143,427.286q0.00,141.429 82.286,224.571t 226.286,100.286q-6.857,15.429 -6.857,31.714q0.00,34.286 24.00,58.286t 58.286,24.00t 58.286-24.00t 24.00-58.286q0.00-16.286 -6.857-31.714q 144.00-17.143 226.286-100.286t 82.286-224.571q0.00-224.571 83.143-427.286t 246.00-340.714z" horiz-adv-x="1426.2857142857142" data-tags="bell" />
<glyph unicode="&#xe075;" d="M 219.429,352.00q0.00,22.286 -16.286,38.571t-38.571,16.286t-38.571-16.286t-16.286-38.571t 16.286-38.571t 38.571-16.286t 38.571,16.286t 16.286,38.571zM 1426.286,845.714q0.00,43.714 -33.429,76.714t-76.286,33.00l-493.714,0.00 q0.00,17.143 12.857,41.571t 28.286,47.143t 28.286,58.286t 12.857,72.429q0.00,57.429 -38.143,83.571t-99.00,26.143q-20.571,0.00 -77.143-119.143q-20.571-37.714 -31.714-55.714q-34.286-54.857 -96.00-124.286q-60.857-69.429 -86.571-90.857 q-59.143-48.857 -120.00-48.857l-27.429,0.00 l0.00-548.571 l 27.429,0.00 q 61.714,0.00 143.143-27.429t 165.857-54.857t 153.857-27.429q 162.00,0.00 162.00,143.143q0.00,22.286 -4.286,48.00q 25.714,13.714 40.714,45.00t 15.00,63.00t-15.429,59.143q 45.429,42.857 45.429,102.00q0.00,21.429 -8.571,47.571t-21.429,40.714l 283.714,0.00 q 44.571,0.00 77.143,32.571t 32.571,77.143zM 1536.00,846.571q0.00-90.00 -64.714-155.143t-154.714-65.143l-144.857,0.00 q-3.429-53.143 -31.714-102.00q 2.571-18.00 2.571-36.857 q0.00-86.571 -51.429-152.571q 0.857-119.143 -72.857-188.143t-194.571-69.00q-114.00,0.00 -276.00,59.143q-140.571,50.571 -191.143,50.571l-246.857,0.00 q-45.429,0.00 -77.571,32.143t-32.143,77.571l0.00,548.571 q0.00,45.429 32.143,77.571t 77.571,32.143l 246.857,0.00 q 8.571,0.00 18.429,3.857t 20.143,12.00t 19.286,15.429t 20.571,19.286t 17.571,18.429t 16.286,18.429t 12.00,14.571q 55.714,63.429 85.714,110.571q 11.143,18.00 28.286,53.143t 31.714,61.714t 34.714,54.00t 47.143,42.429 t 59.571,15.00q 107.143,0.00 177.00-57.429t 69.857-162.00q0.00-58.286 -18.857-109.714l 320.571,0.00 q 89.143,0.00 154.286-65.143t 65.143-153.429z" data-tags="hand-right" />
<glyph unicode="&#xe076;" d="M 1179.429,297.143l 27.429,0.00 l0.00,548.571 l-27.429,0.00 q-30.00,0.00 -57.429,9.857t-54.857,33.00t-41.143,37.714t-42.857,47.143q-1.714,2.571 -3.00,3.857t-3.429,3.857t-3.857,4.286q-61.714,69.429 -96.00,124.286q-12.00,18.857 -32.571,58.286q-0.857,2.571 -9.00,19.286t-15.857,30.857t-17.143,30.429t-18.429,26.143t-15.857,9.857q-60.857,0.00 -99.00-26.143t-38.143-83.571q0.00-36.857 12.857-72.429t 28.286-58.286t 28.286-47.143t 12.857-41.571l-493.714,0.00  q-42.857,0.00 -76.286-33.00t-33.429-76.714q0.00-44.571 32.571-77.143t 77.143-32.571l 283.714,0.00 q-12.857-14.571 -21.429-40.714t-8.571-47.571q0.00-59.143 45.429-102.00q-15.429-27.429 -15.429-59.143t 15.00-63.00t 40.714-45.00q-3.429-20.571 -3.429-48.00q0.00-72.857 41.571-108.00t 116.143-35.143q 72.00,0.00 156.857,27.429t 166.286,54.857t 143.143,27.429zM 1426.286,352.00q0.00,22.286 -16.286,38.571t-38.571,16.286t-38.571-16.286t-16.286-38.571t 16.286-38.571 t 38.571-16.286t 38.571,16.286t 16.286,38.571zM 1536.00,845.714l0.00-548.571 q0.00-45.429 -32.143-77.571t-77.571-32.143l-246.857,0.00 q-50.571,0.00 -191.143-50.571q-162.857-59.143 -271.714-59.143q-121.714,0.00 -197.143,66.429t-74.571,186.429l 0.857,4.286q-52.286,65.143 -52.286,152.571q0.00,18.857 2.571,36.857q-28.286,48.857 -31.714,102.00l-144.857,0.00 q-90.00,0.00 -154.714,65.143t-64.714,155.143q0.00,88.286 65.143,153.429t 154.286,65.143l 320.571,0.00 q-18.857,51.429 -18.857,109.714 q0.00,104.571 69.857,162.00t 177.00,57.429q 32.571,0.00 59.571-15.00t 47.143-42.429t 34.714-54.00t 31.714-61.714t 28.286-53.143q 30.00-47.143 85.714-110.571q 1.714-2.571 12.00-14.571t 16.286-18.429t 17.571-18.429t 20.571-19.286t 19.286-15.429t 20.143-12.00t 18.429-3.857l 246.857,0.00 q 45.429,0.00 77.571-32.143t 32.143-77.571z" data-tags="hand-left" />
<glyph unicode="&#xe077;" d="M 1097.143,132.571q0.00,22.286 -16.286,38.571t-38.571,16.286t-38.571-16.286t-16.286-38.571t 16.286-38.571t 38.571-16.286t 38.571,16.286t 16.286,38.571zM 1206.857,787.429q0.00,162.00 -143.143,162.00q-22.286,0.00 -48.00-4.286q-13.714,25.714 -45.00,40.714t-63.00,15.00t-59.143-15.429q-42.857,45.429 -102.00,45.429q-21.429,0.00 -47.571-8.571t-40.714-21.429l0.00,283.714 q0.00,44.571 -32.571,77.143t-77.143,32.571q-43.714,0.00 -76.714-33.429t-33.00-76.286l0.00-493.714  q-17.143,0.00 -41.571,12.857t-47.143,28.286t-58.286,28.286t-72.429,12.857q-57.429,0.00 -83.571-38.143t-26.143-99.00q0.00-20.571 119.143-77.143q 37.714-20.571 55.714-31.714q 54.857-34.286 124.286-96.00q 69.429-60.857 90.857-86.571q 48.857-59.143 48.857-120.00l0.00-27.429 l 548.571,0.00 l0.00,27.429 q0.00,61.714 27.429,143.143t 54.857,165.857t 27.429,153.857zM 1316.571,791.714q0.00-114.00 -59.143-276.00q-50.571-140.571 -50.571-191.143l0.00-246.857 q0.00-45.429 -32.143-77.571 t-77.571-32.143l-548.571,0.00 q-45.429,0.00 -77.571,32.143t-32.143,77.571l0.00,246.857 q0.00,8.571 -3.857,18.429t-12.00,20.143t-15.429,19.286t-19.286,20.571t-18.429,17.571t-18.429,16.286t-14.571,12.00q-63.429,55.714 -110.571,85.714q-18.00,11.143 -53.143,28.286t-61.714,31.714t-54.00,34.714t-42.429,47.143t-15.00,59.571q0.00,107.143 57.429,177.00t 162.00,69.857q 58.286,0.00 109.714-18.857l0.00,320.571 q0.00,89.143 65.143,154.286t 153.429,65.143 q 90.00,0.00 155.143-64.714t 65.143-154.714l0.00-144.857 q 53.143-3.429 102.00-31.714q 18.00,2.571 36.857,2.571q 86.571,0.00 152.571-51.429q 119.143,0.857 188.143-72.857t 69.00-194.571z" horiz-adv-x="1316.5714285714284" data-tags="hand-up" />
<glyph unicode="&#xe078;" d="M 1206.857,681.143q0.00,72.00 -27.429,156.857t-54.857,166.286t-27.429,143.143l0.00,27.429 l-548.571,0.00 l0.00-27.429 q0.00-39.429 -21.429-78.00t-44.571-61.714t-61.714-56.571q-7.714-6.857 -12.00-10.286q-69.429-61.714 -124.286-96.00q-18.857-12.00 -58.286-32.571q-2.571-0.857 -19.286-9.00t-30.857-15.857t-30.429-17.143t-26.143-18.429t-9.857-15.857q0.00-60.857 26.143-99.00t 83.571-38.143q 36.857,0.00 72.429,12.857t 58.286,28.286t 47.143,28.286 t 41.571,12.857l0.00-493.714 q0.00-42.857 33.00-76.286t 76.714-33.429q 44.571,0.00 77.143,32.571t 32.571,77.143l0.00,283.714 q 39.429-30.00 88.286-30.00q 59.143,0.00 102.00,45.429q 27.429-15.429 59.143-15.429t 63.00,15.00t 45.00,40.714q 20.571-3.429 48.00-3.429q 72.857,0.00 108.00,41.571t 35.143,116.143zM 1097.143,1339.429q0.00,22.286 -16.286,38.571t-38.571,16.286t-38.571-16.286t-16.286-38.571t 16.286-38.571t 38.571-16.286t 38.571,16.286t 16.286,38.571zM 1316.571,684.571q0.00-121.714 -66.429-197.143 t-186.429-74.571l-4.286,0.857q-65.143-52.286 -152.571-52.286q-18.857,0.00 -36.857,2.571q-46.286-25.714 -102.00-31.714l0.00-144.857 q0.00-90.00 -65.143-154.714t-155.143-64.714q-88.286,0.00 -153.429,65.143t-65.143,154.286l0.00,320.571 q-46.286-18.857 -109.714-18.857q-103.714,0.00 -161.571,69.857t-57.857,177.00q0.00,32.571 15.00,59.571t 42.429,47.143t 54.00,34.714t 61.714,31.714t 53.143,28.286q 47.143,30.00 110.571,85.714q 2.571,1.714 14.571,12.00t 18.429,16.286 t 18.429,17.571t 19.286,20.571t 15.429,19.286t 12.00,20.143t 3.857,18.429l0.00,246.857 q0.00,45.429 32.143,77.571t 77.571,32.143l 548.571,0.00 q 45.429,0.00 77.571-32.143t 32.143-77.571l0.00-246.857 q0.00-50.571 50.571-191.143q 59.143-162.857 59.143-271.714z" horiz-adv-x="1316.5714285714284" data-tags="hand-down" />
<glyph unicode="&#xe079;" d="M 1097.143,681.143l0.00,109.714 q0.00,22.286 -16.286,38.571t-38.571,16.286l-430.286,0.00 l 162.00,162.00q 16.286,16.286 16.286,38.571t-16.286,38.571l-78.00,78.00q-15.429,15.429 -38.571,15.429t-38.571-15.429l-310.286-310.286l-78.00-78.00q-15.429-15.429 -15.429-38.571t 15.429-38.571l 78.00-78.00l 310.286-310.286q 15.429-15.429 38.571-15.429t 38.571,15.429l 78.00,78.00q 15.429,15.429 15.429,38.571t-15.429,38.571l-162.00,162.00l 430.286,0.00 q 22.286,0.00 38.571,16.286t 16.286,38.571zM 1316.571,736.00 q0.00-179.143 -88.286-330.429t-239.571-239.571t-330.429-88.286t-330.429,88.286t-239.571,239.571t-88.286,330.429t 88.286,330.429t 239.571,239.571t 330.429,88.286t 330.429-88.286t 239.571-239.571t 88.286-330.429z" horiz-adv-x="1316.5714285714284" data-tags="circle-arrow-left" />
<glyph unicode="&#xe07a;" d="M 1101.429,736.00q0.00,23.143 -15.429,38.571l-78.00,78.00l-310.286,310.286q-15.429,15.429 -38.571,15.429t-38.571-15.429l-78.00-78.00q-15.429-15.429 -15.429-38.571t 15.429-38.571l 162.00-162.00l-430.286,0.00 q-22.286,0.00 -38.571-16.286t-16.286-38.571l0.00-109.714 q0.00-22.286 16.286-38.571t 38.571-16.286l 430.286,0.00 l-162.00-162.00q-16.286-16.286 -16.286-38.571t 16.286-38.571l 78.00-78.00q 15.429-15.429 38.571-15.429t 38.571,15.429l 310.286,310.286l 78.00,78.00q 15.429,15.429 15.429,38.571zM 1316.571,736.00 q0.00-179.143 -88.286-330.429t-239.571-239.571t-330.429-88.286t-330.429,88.286t-239.571,239.571t-88.286,330.429t 88.286,330.429t 239.571,239.571t 330.429,88.286t 330.429-88.286t 239.571-239.571t 88.286-330.429z" horiz-adv-x="1316.5714285714284" data-tags="circle-arrow-right" />
<glyph unicode="&#xe07b;" d="M 1100.571,736.857q0.00,23.143 -15.429,38.571l-310.286,310.286l-78.00,78.00q-15.429,15.429 -38.571,15.429t-38.571-15.429l-78.00-78.00l-310.286-310.286q-15.429-15.429 -15.429-38.571t 15.429-38.571l 78.00-78.00q 15.429-15.429 38.571-15.429t 38.571,15.429l 162.00,162.00l0.00-430.286 q0.00-22.286 16.286-38.571t 38.571-16.286l 109.714,0.00 q 22.286,0.00 38.571,16.286t 16.286,38.571l0.00,430.286 l 162.00-162.00q 16.286-16.286 38.571-16.286t 38.571,16.286l 78.00,78.00q 15.429,15.429 15.429,38.571zM 1316.571,736.00 q0.00-179.143 -88.286-330.429t-239.571-239.571t-330.429-88.286t-330.429,88.286t-239.571,239.571t-88.286,330.429t 88.286,330.429t 239.571,239.571t 330.429,88.286t 330.429-88.286t 239.571-239.571t 88.286-330.429z" horiz-adv-x="1316.5714285714284" data-tags="circle-arrow-up" />
<glyph unicode="&#xe07c;" d="M 1100.571,735.143q0.00,23.143 -15.429,38.571l-78.00,78.00q-15.429,15.429 -38.571,15.429t-38.571-15.429l-162.00-162.00l0.00,430.286 q0.00,22.286 -16.286,38.571t-38.571,16.286l-109.714,0.00 q-22.286,0.00 -38.571-16.286t-16.286-38.571l0.00-430.286 l-162.00,162.00q-16.286,16.286 -38.571,16.286t-38.571-16.286l-78.00-78.00q-15.429-15.429 -15.429-38.571t 15.429-38.571l 310.286-310.286l 78.00-78.00q 15.429-15.429 38.571-15.429t 38.571,15.429l 78.00,78.00l 310.286,310.286q 15.429,15.429 15.429,38.571zM 1316.571,736.00 q0.00-179.143 -88.286-330.429t-239.571-239.571t-330.429-88.286t-330.429,88.286t-239.571,239.571t-88.286,330.429t 88.286,330.429t 239.571,239.571t 330.429,88.286t 330.429-88.286t 239.571-239.571t 88.286-330.429z" horiz-adv-x="1316.5714285714284" data-tags="circle-arrow-down" />
<glyph unicode="&#xe07e;" d="M 877.714,297.143l 548.571,0.00 l0.00,109.714 l-548.571,0.00 l0.00-109.714 zM 548.571,736.00l 877.714,0.00 l0.00,109.714 l-877.714,0.00 l0.00-109.714 zM 1097.143,1174.857l 329.143,0.00 l0.00,109.714 l-329.143,0.00 l0.00-109.714 zM 1536.00,461.714l0.00-219.429 q0.00-22.286 -16.286-38.571t-38.571-16.286l-1426.286,0.00 q-22.286,0.00 -38.571,16.286t-16.286,38.571l0.00,219.429 q0.00,22.286 16.286,38.571t 38.571,16.286l 1426.286,0.00 q 22.286,0.00 38.571-16.286t 16.286-38.571zM 1536.00,900.571l0.00-219.429 q0.00-22.286 -16.286-38.571t-38.571-16.286l-1426.286,0.00 q-22.286,0.00 -38.571,16.286 t-16.286,38.571l0.00,219.429 q0.00,22.286 16.286,38.571t 38.571,16.286l 1426.286,0.00 q 22.286,0.00 38.571-16.286t 16.286-38.571zM 1536.00,1339.429l0.00-219.429 q0.00-22.286 -16.286-38.571t-38.571-16.286l-1426.286,0.00 q-22.286,0.00 -38.571,16.286t-16.286,38.571l0.00,219.429 q0.00,22.286 16.286,38.571t 38.571,16.286l 1426.286,0.00 q 22.286,0.00 38.571-16.286t 16.286-38.571z" data-tags="tasks" />
<glyph unicode="&#xe07f;" d="M 1536.00,434.286l0.00-274.286 q0.00-34.286 -24.00-58.286t-58.286-24.00l-274.286,0.00 q-34.286,0.00 -58.286,24.00t-24.00,58.286l0.00,274.286 q0.00,34.286 24.00,58.286t 58.286,24.00l 82.286,0.00 l0.00,164.571 l-438.857,0.00 l0.00-164.571 l 82.286,0.00 q 34.286,0.00 58.286-24.00t 24.00-58.286l0.00-274.286 q0.00-34.286 -24.00-58.286t-58.286-24.00l-274.286,0.00 q-34.286,0.00 -58.286,24.00t-24.00,58.286l0.00,274.286 q0.00,34.286 24.00,58.286t 58.286,24.00l 82.286,0.00 l0.00,164.571 l-438.857,0.00 l0.00-164.571 l 82.286,0.00 q 34.286,0.00 58.286-24.00t 24.00-58.286l0.00-274.286  q0.00-34.286 -24.00-58.286t-58.286-24.00l-274.286,0.00 q-34.286,0.00 -58.286,24.00t-24.00,58.286l0.00,274.286 q0.00,34.286 24.00,58.286t 58.286,24.00l 82.286,0.00 l0.00,164.571 q0.00,44.571 32.571,77.143t 77.143,32.571l 438.857,0.00 l0.00,164.571 l-82.286,0.00 q-34.286,0.00 -58.286,24.00t-24.00,58.286l0.00,274.286 q0.00,34.286 24.00,58.286t 58.286,24.00l 274.286,0.00 q 34.286,0.00 58.286-24.00t 24.00-58.286l0.00-274.286 q0.00-34.286 -24.00-58.286t-58.286-24.00l-82.286,0.00 l0.00-164.571 l 438.857,0.00 q 44.571,0.00 77.143-32.571t 32.571-77.143l0.00-164.571 l 82.286,0.00 q 34.286,0.00 58.286-24.00t 24.00-58.286 z" data-tags="sitemap" />
<glyph unicode="&#xe080;" d="M 758.571,1018.857q 15.429-17.143 6.00-37.714l-462.857-991.714q-11.143-21.429 -36.00-21.429q-3.429,0.00 -12.00,1.714q-14.571,4.286 -21.857,16.286t-3.857,25.714l 168.857,692.571l-348.00-86.571q-3.429-0.857 -10.286-0.857q-15.429,0.00 -26.571,9.429q-15.429,12.857 -11.143,33.429l 172.286,707.143q 3.429,12.00 13.714,19.714t 24.00,7.714l 281.143,0.00 q 16.286,0.00 27.429-10.714t 11.143-25.286q0.00-6.857 -4.286-15.429l-146.571-396.857l 339.429,84.00q 6.857,1.714 10.286,1.714q 16.286,0.00 29.143-12.857z" horiz-adv-x="768" data-tags="bolt" />
<glyph unicode="&#xe081;" d="M 768.00,1174.857q-174.857,0.00 -327.00-59.571t-241.714-160.714t-89.571-218.571q0.00-96.00 61.286-183.00t 172.714-150.429l 74.571-42.857l-23.143-82.286q-20.571-78.00 -60.00-147.429q 130.286,54.00 235.714,146.571l 36.857,32.571l 48.857-5.143q 59.143-6.857 111.429-6.857q 174.857,0.00 327.00,59.571t 241.714,160.714t 89.571,218.571t-89.571,218.571t-241.714,160.714t-327.00,59.571zM 1536.00,736.00 q0.00-149.143 -102.857-275.571t-279.429-199.714t-385.714-73.286q-60.00,0.00 -124.286,6.857q-169.714-150.00 -394.286-207.429q-42.00-12.00 -97.714-18.857l-4.286,0.00 q-12.857,0.00 -23.143,9.00t-13.714,23.571l0.00,0.857 q-2.571,3.429 -0.429,10.286t 1.714,8.571t 3.857,8.143l 5.143,7.714t 6.00,7.286t 6.857,7.714q 6.00,6.857 26.571,29.571t 29.571,32.571t 26.571,33.857t 27.857,43.714t 23.143,50.571t 22.286,65.143q-134.571,76.286 -212.143,188.571t-77.571,240.857q0.00,149.143 102.857,275.571 t 279.429,199.714t 385.714,73.286t 385.714-73.286t 279.429-199.714t 102.857-275.571z" data-tags="comment-alt" />
<glyph unicode="&#xe082;" d="M 1518.00,187.429q0.00-45.429 -31.714-77.143l-91.714-92.571q-33.429-31.714 -78.00-31.714q-45.429,0.00 -77.143,31.714l-311.143,312.00q-32.571,30.857 -32.571,77.143q0.00,45.429 36.857,82.286l-219.429,219.429l-108.00-108.00q-12.00-12.00 -29.143-12.00t-29.143,12.00q 1.714-1.714 10.714-10.286t 10.714-11.143t 8.571-9.857t 8.571-11.571t 5.143-11.571t 4.714-14.143t 1.286-15.429q0.00-32.571 -24.00-58.286q-2.571-2.571 -14.143-15.429t-16.286-17.571 t-15.857-14.143t-18.857-13.286t-18.857-7.714t-22.286-3.857q-34.286,0.00 -58.286,24.00l-349.714,349.714q-24.00,24.00 -24.00,58.286q0.00,11.143 3.857,22.286t 7.714,18.857t 13.286,18.857t 14.143,15.857t 17.571,16.286t 15.429,14.143q 25.714,24.00 58.286,24.00q 8.571,0.00 15.429-1.286t 14.143-4.714t 11.571-5.143t 11.571-8.571t 9.857-8.571t 11.143-10.714t 10.286-10.714q-12.00,12.00 -12.00,29.143t 12.00,29.143l 298.286,298.286q 12.00,12.00 29.143,12.00t 29.143-12.00 q-1.714,1.714 -10.714,10.286t-10.714,11.143t-8.571,9.857t-8.571,11.571t-5.143,11.571t-4.714,14.143t-1.286,15.429q0.00,32.571 24.00,58.286q 2.571,2.571 14.143,15.429t 16.286,17.571t 15.857,14.143t 18.857,13.286t 18.857,7.714t 22.286,3.857q 34.286,0.00 58.286-24.00l 349.714-349.714q 24.00-24.00 24.00-58.286q0.00-11.143 -3.857-22.286t-7.714-18.857t-13.286-18.857t-14.143-15.857t-17.571-16.286t-15.429-14.143q-25.714-24.00 -58.286-24.00 q-8.571,0.00 -15.429,1.286t-14.143,4.714t-11.571,5.143t-11.571,8.571t-9.857,8.571t-11.143,10.714t-10.286,10.714q 12.00-12.00 12.00-29.143t-12.00-29.143l-108.00-108.00l 219.429-219.429q 36.857,36.857 82.286,36.857q 44.571,0.00 78.00-31.714l 311.143-311.143q 31.714-33.429 31.714-78.00z" data-tags="legal" />
<glyph unicode="&#xe085;" d="M 397.714,297.143q0.00,28.286 -20.143,48.429t-48.429,20.143t-48.429-20.143t-20.143-48.429t 20.143-48.429t 48.429-20.143t 48.429,20.143t 20.143,48.429zM 576.00,434.286l0.00,603.429 q0.00,11.143 -8.143,19.286t-19.286,8.143l-438.857,0.00 q-11.143,0.00 -19.286-8.143t-8.143-19.286l0.00-603.429 q0.00-11.143 8.143-19.286t 19.286-8.143l 438.857,0.00 q 11.143,0.00 19.286,8.143t 8.143,19.286zM 411.429,1161.143 q0.00,13.714 -13.714,13.714l-137.143,0.00 q-13.714,0.00 -13.714-13.714t 13.714-13.714l 137.143,0.00 q 13.714,0.00 13.714,13.714zM 658.286,1174.857l0.00-877.714 q0.00-44.571 -32.571-77.143t-77.143-32.571l-438.857,0.00 q-44.571,0.00 -77.143,32.571t-32.571,77.143l0.00,877.714 q0.00,44.571 32.571,77.143t 77.143,32.571l 438.857,0.00 q 44.571,0.00 77.143-32.571t 32.571-77.143z" horiz-adv-x="658.2857142857142" data-tags="mobile-phone" />
<glyph unicode="&#xe086;" d="M 548.571,297.143q0.00,22.286 -16.286,38.571t-38.571,16.286t-38.571-16.286t-16.286-38.571t 16.286-38.571t 38.571-16.286t 38.571,16.286t 16.286,38.571zM 877.714,434.286l0.00,822.857 q0.00,11.143 -8.143,19.286t-19.286,8.143l-713.143,0.00 q-11.143,0.00 -19.286-8.143t-8.143-19.286l0.00-822.857 q0.00-11.143 8.143-19.286t 19.286-8.143l 713.143,0.00 q 11.143,0.00 19.286,8.143t 8.143,19.286zM 987.429,1257.143l0.00-932.571 q0.00-56.571 -40.286-96.857t-96.857-40.286l-713.143,0.00  q-56.571,0.00 -96.857,40.286t-40.286,96.857l0.00,932.571 q0.00,56.571 40.286,96.857t 96.857,40.286l 713.143,0.00 q 56.571,0.00 96.857-40.286t 40.286-96.857z" horiz-adv-x="987.4285714285713" data-tags="tablet" />
<glyph unicode="&#xe087;" d="M 356.571,406.857q-56.571,0.00 -96.857,40.286t-40.286,96.857l0.00,603.429 q0.00,56.571 40.286,96.857t 96.857,40.286l 932.571,0.00 q 56.571,0.00 96.857-40.286t 40.286-96.857l0.00-603.429 q0.00-56.571 -40.286-96.857t-96.857-40.286l-932.571,0.00 zM 329.143,1147.429l0.00-603.429 q0.00-11.143 8.143-19.286t 19.286-8.143l 932.571,0.00 q 11.143,0.00 19.286,8.143t 8.143,19.286l0.00,603.429 q0.00,11.143 -8.143,19.286t-19.286,8.143l-932.571,0.00 q-11.143,0.00 -19.286-8.143t-8.143-19.286z M 1508.571,352.00l 137.143,0.00 l0.00-82.286 q0.00-34.286 -40.286-58.286t-96.857-24.00l-1371.429,0.00 q-56.571,0.00 -96.857,24.00t-40.286,58.286l0.00,82.286 l 137.143,0.00 l 1371.429,0.00 zM 891.429,269.714q 13.714,0.00 13.714,13.714t-13.714,13.714l-137.143,0.00 q-13.714,0.00 -13.714-13.714t 13.714-13.714l 137.143,0.00 z" horiz-adv-x="1645.7142857142856" data-tags="laptop" />
<glyph unicode="&#xe088;" d="M 1536.00,653.714l0.00,713.143 q0.00,11.143 -8.143,19.286t-19.286,8.143l-1371.429,0.00 q-11.143,0.00 -19.286-8.143t-8.143-19.286l0.00-713.143 q0.00-11.143 8.143-19.286t 19.286-8.143l 1371.429,0.00 q 11.143,0.00 19.286,8.143t 8.143,19.286zM 1645.714,1366.857l0.00-932.571 q0.00-56.571 -40.286-96.857t-96.857-40.286l-466.286,0.00 q0.00-31.714 13.714-66.429t 27.429-60.857t 13.714-37.286q0.00-22.286 -16.286-38.571t-38.571-16.286l-438.857,0.00 q-22.286,0.00 -38.571,16.286 t-16.286,38.571q0.00,12.00 13.714,37.714t 27.429,60.00t 13.714,66.857l-466.286,0.00 q-56.571,0.00 -96.857,40.286t-40.286,96.857l0.00,932.571 q0.00,56.571 40.286,96.857t 96.857,40.286l 1371.429,0.00 q 56.571,0.00 96.857-40.286t 40.286-96.857z" horiz-adv-x="1645.7142857142856" data-tags="desktop" />
<glyph unicode="&#xe089;" d="M 510.00,681.143q0.00-11.143 -8.571-19.714l-399.429-399.429q-8.571-8.571 -19.714-8.571t-19.714,8.571l-42.857,42.857q-8.571,8.571 -8.571,19.714t 8.571,19.714l 336.857,336.857l-336.857,336.857q-8.571,8.571 -8.571,19.714t 8.571,19.714l 42.857,42.857q 8.571,8.571 19.714,8.571t 19.714-8.571l 399.429-399.429q 8.571-8.571 8.571-19.714zM 839.143,681.143q0.00-11.143 -8.571-19.714l-399.429-399.429q-8.571-8.571 -19.714-8.571t-19.714,8.571l-42.857,42.857q-8.571,8.571 -8.571,19.714t 8.571,19.714 l 336.857,336.857l-336.857,336.857q-8.571,8.571 -8.571,19.714t 8.571,19.714l 42.857,42.857q 8.571,8.571 19.714,8.571t 19.714-8.571l 399.429-399.429q 8.571-8.571 8.571-19.714z" horiz-adv-x="877.7142857142857" data-tags="double-angle-right" />
<glyph unicode="&#xe08a;" d="M 921.429,379.429q0.00-11.143 -8.571-19.714l-42.857-42.857q-8.571-8.571 -19.714-8.571t-19.714,8.571l-336.857,336.857l-336.857-336.857q-8.571-8.571 -19.714-8.571t-19.714,8.571l-42.857,42.857q-8.571,8.571 -8.571,19.714t 8.571,19.714l 399.429,399.429q 8.571,8.571 19.714,8.571t 19.714-8.571l 399.429-399.429q 8.571-8.571 8.571-19.714zM 921.429,708.571q0.00-11.143 -8.571-19.714l-42.857-42.857q-8.571-8.571 -19.714-8.571t-19.714,8.571l-336.857,336.857l-336.857-336.857 q-8.571-8.571 -19.714-8.571t-19.714,8.571l-42.857,42.857q-8.571,8.571 -8.571,19.714t 8.571,19.714l 399.429,399.429q 8.571,8.571 19.714,8.571t 19.714-8.571l 399.429-399.429q 8.571-8.571 8.571-19.714z" horiz-adv-x="987.4285714285713" data-tags="double-angle-up" />
<glyph unicode="&#xe08b;" d="M 921.429,763.429q0.00-11.143 -8.571-19.714l-399.429-399.429q-8.571-8.571 -19.714-8.571t-19.714,8.571l-399.429,399.429q-8.571,8.571 -8.571,19.714t 8.571,19.714l 42.857,42.857q 8.571,8.571 19.714,8.571t 19.714-8.571l 336.857-336.857l 336.857,336.857q 8.571,8.571 19.714,8.571t 19.714-8.571l 42.857-42.857q 8.571-8.571 8.571-19.714zM 921.429,1092.571q0.00-11.143 -8.571-19.714l-399.429-399.429q-8.571-8.571 -19.714-8.571t-19.714,8.571l-399.429,399.429q-8.571,8.571 -8.571,19.714 t 8.571,19.714l 42.857,42.857q 8.571,8.571 19.714,8.571t 19.714-8.571l 336.857-336.857l 336.857,336.857q 8.571,8.571 19.714,8.571t 19.714-8.571l 42.857-42.857q 8.571-8.571 8.571-19.714z" horiz-adv-x="987.4285714285713" data-tags="double-angle-down" />
<glyph unicode="&#xe08c;" d="M 537.429,324.571q0.00-11.143 -8.571-19.714l-42.857-42.857q-8.571-8.571 -19.714-8.571t-19.714,8.571l-399.429,399.429q-8.571,8.571 -8.571,19.714t 8.571,19.714l 399.429,399.429q 8.571,8.571 19.714,8.571t 19.714-8.571l 42.857-42.857q 8.571-8.571 8.571-19.714t-8.571-19.714l-336.857-336.857l 336.857-336.857q 8.571-8.571 8.571-19.714zM 866.571,324.571q0.00-11.143 -8.571-19.714l-42.857-42.857q-8.571-8.571 -19.714-8.571t-19.714,8.571l-399.429,399.429q-8.571,8.571 -8.571,19.714 t 8.571,19.714l 399.429,399.429q 8.571,8.571 19.714,8.571t 19.714-8.571l 42.857-42.857q 8.571-8.571 8.571-19.714t-8.571-19.714l-336.857-336.857l 336.857-336.857q 8.571-8.571 8.571-19.714z" horiz-adv-x="877.7142857142857" data-tags="double-angle-left" />
<glyph unicode="&#xe08e;" d="M 1632.00,1312.00L 96.00,1312.00 C 43.20,1312.00,0.00,1268.80,0.00,1216.00l0.00-960.00 c0.00-52.80, 43.20-96.00, 96.00-96.00l 1536.00,0.00 c 52.80,0.00, 96.00,43.20, 96.00,96.00L 1728.00,1216.00 C 1728.00,1268.80, 1684.80,1312.00, 1632.00,1312.00z M 960.00,1120.00
	l 192.00,0.00 l0.00-192.00 l-192.00,0.00 L 960.00,1120.00 z M 1248.00,832.00l0.00-192.00 l-192.00,0.00 l0.00,192.00 L 1248.00,832.00 z M 672.00,1120.00l 192.00,0.00 l0.00-192.00 l-192.00,0.00 L 672.00,1120.00 z M 960.00,832.00l0.00-192.00 l-192.00,0.00 l0.00,192.00 L 960.00,832.00 z M 384.00,1120.00l 192.00,0.00 l0.00-192.00 l-192.00,0.00 L 384.00,1120.00 z M 672.00,832.00l0.00-192.00 
	l-192.00,0.00 l0.00,192.00 L 672.00,832.00 z M 192.00,1120.00l 96.00,0.00 l0.00-192.00 L 192.00,928.00 L 192.00,1120.00 z M 192.00,832.00l 192.00,0.00 l0.00-192.00 L 192.00,640.00 L 192.00,832.00 z M 288.00,352.00L 192.00,352.00 l0.00,192.00 l 96.00,0.00 L 288.00,352.00 z M 1152.00,352.00L 384.00,352.00 l0.00,192.00 l 768.00,0.00 L 1152.00,352.00 z M 1536.00,352.00l-288.00,0.00 l0.00,192.00 l 288.00,0.00 
	L 1536.00,352.00 z M 1536.00,640.00l-192.00,0.00 l0.00,192.00 l 192.00,0.00 L 1536.00,640.00 z M 1536.00,928.00l-288.00,0.00 l0.00,192.00 l 288.00,0.00 L 1536.00,928.00 z" horiz-adv-x="1728" data-tags="keyboard, type, typing" />
<glyph unicode="&#xf0b1;" d="M 548.571,1174.857l 438.857,0.00 l0.00,109.714 l-438.857,0.00 l0.00-109.714 zM 1536.00,626.286l0.00-411.429 q0.00-56.571 -40.286-96.857t-96.857-40.286l-1261.714,0.00 q-56.571,0.00 -96.857,40.286t-40.286,96.857l0.00,411.429 l 576.00,0.00 l0.00-137.143 q0.00-22.286 16.286-38.571t 38.571-16.286l 274.286,0.00 q 22.286,0.00 38.571,16.286t 16.286,38.571l0.00,137.143 l 576.00,0.00 zM 877.714,626.286l0.00-109.714 l-219.429,0.00 l0.00,109.714 l 219.429,0.00 zM 1536.00,1037.714l0.00-329.143 l-1536.00,0.00 l0.00,329.143 q0.00,56.571 40.286,96.857t 96.857,40.286l 301.714,0.00 l0.00,137.143 q0.00,34.286 24.00,58.286 t 58.286,24.00l 493.714,0.00 q 34.286,0.00 58.286-24.00t 24.00-58.286l0.00-137.143 l 301.714,0.00 q 56.571,0.00 96.857-40.286t 40.286-96.857z" data-tags="briefcase" />
<glyph unicode="&#xf075;" d="M 1536.00,736.00q0.00-149.143 -102.857-275.571t-279.429-199.714t-385.714-73.286q-60.00,0.00 -124.286,6.857q-169.714-150.00 -394.286-207.429q-42.00-12.00 -97.714-18.857q-14.571-1.714 -26.143,7.714t-15.00,24.857l0.00,0.857 q-2.571,3.429 -0.429,10.286t 1.714,8.571t 3.857,8.143l 5.143,7.714t 6.00,7.286t 6.857,7.714q 6.00,6.857 26.571,29.571t 29.571,32.571t 26.571,33.857t 27.857,43.714t 23.143,50.571t 22.286,65.143q-134.571,76.286 -212.143,188.571t-77.571,240.857 q0.00,111.429 60.857,213.00t 163.714,175.286t 245.143,117.00t 298.286,43.286q 209.143,0.00 385.714-73.286t 279.429-199.714t 102.857-275.571z" data-tags="commet" />
<glyph unicode="&#xf0f7;" d="M 329.143,379.429l0.00-54.857 q0.00-11.143 -8.143-19.286t-19.286-8.143l-54.857,0.00 q-11.143,0.00 -19.286,8.143t-8.143,19.286l0.00,54.857 q0.00,11.143 8.143,19.286t 19.286,8.143l 54.857,0.00 q 11.143,0.00 19.286-8.143t 8.143-19.286zM 329.143,598.857l0.00-54.857 q0.00-11.143 -8.143-19.286t-19.286-8.143l-54.857,0.00 q-11.143,0.00 -19.286,8.143t-8.143,19.286l0.00,54.857 q0.00,11.143 8.143,19.286t 19.286,8.143l 54.857,0.00 q 11.143,0.00 19.286-8.143t 8.143-19.286z M 548.571,598.857l0.00-54.857 q0.00-11.143 -8.143-19.286t-19.286-8.143l-54.857,0.00 q-11.143,0.00 -19.286,8.143t-8.143,19.286l0.00,54.857 q0.00,11.143 8.143,19.286t 19.286,8.143l 54.857,0.00 q 11.143,0.00 19.286-8.143t 8.143-19.286zM 329.143,818.286l0.00-54.857 q0.00-11.143 -8.143-19.286t-19.286-8.143l-54.857,0.00 q-11.143,0.00 -19.286,8.143t-8.143,19.286l0.00,54.857 q0.00,11.143 8.143,19.286t 19.286,8.143l 54.857,0.00 q 11.143,0.00 19.286-8.143t 8.143-19.286z M 987.429,379.429l0.00-54.857 q0.00-11.143 -8.143-19.286t-19.286-8.143l-54.857,0.00 q-11.143,0.00 -19.286,8.143t-8.143,19.286l0.00,54.857 q0.00,11.143 8.143,19.286t 19.286,8.143l 54.857,0.00 q 11.143,0.00 19.286-8.143t 8.143-19.286zM 768.00,598.857l0.00-54.857 q0.00-11.143 -8.143-19.286t-19.286-8.143l-54.857,0.00 q-11.143,0.00 -19.286,8.143t-8.143,19.286l0.00,54.857 q0.00,11.143 8.143,19.286t 19.286,8.143l 54.857,0.00 q 11.143,0.00 19.286-8.143t 8.143-19.286z M 548.571,818.286l0.00-54.857 q0.00-11.143 -8.143-19.286t-19.286-8.143l-54.857,0.00 q-11.143,0.00 -19.286,8.143t-8.143,19.286l0.00,54.857 q0.00,11.143 8.143,19.286t 19.286,8.143l 54.857,0.00 q 11.143,0.00 19.286-8.143t 8.143-19.286zM 329.143,1037.714l0.00-54.857 q0.00-11.143 -8.143-19.286t-19.286-8.143l-54.857,0.00 q-11.143,0.00 -19.286,8.143t-8.143,19.286l0.00,54.857 q0.00,11.143 8.143,19.286t 19.286,8.143l 54.857,0.00 q 11.143,0.00 19.286-8.143t 8.143-19.286z M 987.429,598.857l0.00-54.857 q0.00-11.143 -8.143-19.286t-19.286-8.143l-54.857,0.00 q-11.143,0.00 -19.286,8.143t-8.143,19.286l0.00,54.857 q0.00,11.143 8.143,19.286t 19.286,8.143l 54.857,0.00 q 11.143,0.00 19.286-8.143t 8.143-19.286zM 768.00,818.286l0.00-54.857 q0.00-11.143 -8.143-19.286t-19.286-8.143l-54.857,0.00 q-11.143,0.00 -19.286,8.143t-8.143,19.286l0.00,54.857 q0.00,11.143 8.143,19.286t 19.286,8.143l 54.857,0.00 q 11.143,0.00 19.286-8.143t 8.143-19.286z M 548.571,1037.714l0.00-54.857 q0.00-11.143 -8.143-19.286t-19.286-8.143l-54.857,0.00 q-11.143,0.00 -19.286,8.143t-8.143,19.286l0.00,54.857 q0.00,11.143 8.143,19.286t 19.286,8.143l 54.857,0.00 q 11.143,0.00 19.286-8.143t 8.143-19.286zM 329.143,1257.143l0.00-54.857 q0.00-11.143 -8.143-19.286t-19.286-8.143l-54.857,0.00 q-11.143,0.00 -19.286,8.143t-8.143,19.286l0.00,54.857 q0.00,11.143 8.143,19.286t 19.286,8.143l 54.857,0.00 q 11.143,0.00 19.286-8.143t 8.143-19.286z M 987.429,818.286l0.00-54.857 q0.00-11.143 -8.143-19.286t-19.286-8.143l-54.857,0.00 q-11.143,0.00 -19.286,8.143t-8.143,19.286l0.00,54.857 q0.00,11.143 8.143,19.286t 19.286,8.143l 54.857,0.00 q 11.143,0.00 19.286-8.143t 8.143-19.286zM 768.00,1037.714l0.00-54.857 q0.00-11.143 -8.143-19.286t-19.286-8.143l-54.857,0.00 q-11.143,0.00 -19.286,8.143t-8.143,19.286l0.00,54.857 q0.00,11.143 8.143,19.286t 19.286,8.143l 54.857,0.00 q 11.143,0.00 19.286-8.143t 8.143-19.286z M 548.571,1257.143l0.00-54.857 q0.00-11.143 -8.143-19.286t-19.286-8.143l-54.857,0.00 q-11.143,0.00 -19.286,8.143t-8.143,19.286l0.00,54.857 q0.00,11.143 8.143,19.286t 19.286,8.143l 54.857,0.00 q 11.143,0.00 19.286-8.143t 8.143-19.286zM 987.429,1037.714l0.00-54.857 q0.00-11.143 -8.143-19.286t-19.286-8.143l-54.857,0.00 q-11.143,0.00 -19.286,8.143t-8.143,19.286l0.00,54.857 q0.00,11.143 8.143,19.286t 19.286,8.143l 54.857,0.00 q 11.143,0.00 19.286-8.143t 8.143-19.286z M 768.00,1257.143l0.00-54.857 q0.00-11.143 -8.143-19.286t-19.286-8.143l-54.857,0.00 q-11.143,0.00 -19.286,8.143t-8.143,19.286l0.00,54.857 q0.00,11.143 8.143,19.286t 19.286,8.143l 54.857,0.00 q 11.143,0.00 19.286-8.143t 8.143-19.286zM 987.429,1257.143l0.00-54.857 q0.00-11.143 -8.143-19.286t-19.286-8.143l-54.857,0.00 q-11.143,0.00 -19.286,8.143t-8.143,19.286l0.00,54.857 q0.00,11.143 8.143,19.286t 19.286,8.143l 54.857,0.00 q 11.143,0.00 19.286-8.143t 8.143-19.286z M 768.00,77.714l 329.143,0.00 l0.00,1316.571 l-987.429,0.00 l0.00-1316.571 l 329.143,0.00 l0.00,192.00 q0.00,11.143 8.143,19.286t 19.286,8.143l 274.286,0.00 q 11.143,0.00 19.286-8.143t 8.143-19.286l0.00-192.00 zM 1206.857,1449.143l0.00-1426.286 q0.00-22.286 -16.286-38.571t-38.571-16.286l-1097.143,0.00 q-22.286,0.00 -38.571,16.286t-16.286,38.571l0.00,1426.286 q0.00,22.286 16.286,38.571t 38.571,16.286l 1097.143,0.00 q 22.286,0.00 38.571-16.286t 16.286-38.571z" horiz-adv-x="1206.857142857143" data-tags="building" />
<glyph unicode="&#xf0ec;" d="M 1536.00,489.143l0.00-164.571 q0.00-11.143 -8.143-19.286t-19.286-8.143l-1179.429,0.00 l0.00-164.571 q0.00-11.143 -8.143-19.286t-19.286-8.143q-10.286,0.00 -20.571,8.571l-273.429,274.286q-7.714,7.714 -7.714,18.857q0.00,12.00 7.714,19.714l 274.286,274.286q 7.714,7.714 19.714,7.714q 11.143,0.00 19.286-8.143t 8.143-19.286l0.00-164.571 l 1179.429,0.00 q 11.143,0.00 19.286-8.143t 8.143-19.286zM 1536.00,955.429q0.00-12.00 -7.714-19.714l-274.286-274.286q-7.714-7.714 -19.714-7.714 q-11.143,0.00 -19.286,8.143t-8.143,19.286l0.00,164.571 l-1179.429,0.00 q-11.143,0.00 -19.286,8.143t-8.143,19.286l0.00,164.571 q0.00,11.143 8.143,19.286t 19.286,8.143l 1179.429,0.00 l0.00,164.571 q0.00,12.00 7.714,19.714t 19.714,7.714q 10.286,0.00 20.571-8.571l 273.429-273.429q 7.714-7.714 7.714-19.714z" data-tags="exchange" />
<glyph unicode="&#xe03a;" d="M0.00,96.001c0.00-70.719, 57.279-128.001, 128.001-128.001l 1280.001,0.00 c 70.719,0.00, 128.001,57.279, 128.001,128.001L 1536.00,448.00 c0.00,70.719-57.279,128.001-128.001,128.001L 1023.999,576.001 L 1023.999,912.001 
	c0.00,44.16-35.841,80.001-80.001,80.001S 864.00,956.161, 864.00,912.001L 864.00,576.001 L 128.001,576.001 c-70.719,0.00-128.001-57.279-128.001-128.001L0.00,96.001 z M 159.999,271.999C 159.999,316.159, 195.84,352.00, 240.00,352.00s 80.001-35.841, 80.001-80.001
	S 284.16,192.001, 240.00,192.001S 159.999,227.839, 159.999,271.999z M 447.999,271.999c0.00,44.16, 35.841,80.001, 80.001,80.001s 80.001-35.841, 80.001-80.001S 572.16,192.001, 528.00,192.001S 447.999,227.839, 447.999,271.999z M 944.001,1248.001
	C 758.40,1248.001, 608.001,1097.599, 608.001,912.001c0.00-44.16, 35.841-80.001, 80.001-80.001s 80.001,35.841, 80.001,80.001c0.00,97.281, 78.72,176.001, 176.001,176.001s 176.001-78.72, 176.001-176.001
	c0.00-44.16, 35.841-80.001, 80.001-80.001s 80.001,35.841, 80.001,80.001C 1280.001,1097.599, 1129.599,1248.001, 944.001,1248.001z M 944.001,1504.00C 616.959,1504.00, 351.999,1239.04, 351.999,912.001c0.00-44.16, 35.841-80.001, 80.001-80.001
	s 80.001,35.841, 80.001,80.001C 512.001,1150.72, 705.279,1344.001, 944.001,1344.001S 1376.001,1150.72, 1376.001,912.001c0.00-44.16, 35.841-80.001, 80.001-80.001s 80.001,35.841, 80.001,80.001C 1536.00,1239.04, 1271.073,1504.00, 944.001,1504.00z" data-tags="modem, wifi" />
<glyph unicode="&#xe057;" d="M 224.001,96.001c0.00-70.719, 57.279-128.001, 128.001-128.001l 800.001,0.00 c 70.719,0.00, 128.001,57.279, 128.001,128.001L 1280.001,1248.001 c0.00,70.719-57.279,128.001-128.001,128.001l-159.999,0.00 L 992.001,1433.599 
	C 992.001,1472.641, 960.639,1504.00, 921.60,1504.00L 582.399,1504.00 C 543.36,1504.00, 512.001,1472.641, 512.001,1433.599L 512.001,1375.999 l-159.999,0.00 C 281.28,1375.999, 224.001,1318.72, 224.001,1248.001L 224.001,96.001 z M 454.401,384.001l 595.20,0.00 c 39.039,0.00, 70.401-31.359, 70.401-70.401l0.00-115.20 
	c0.00-39.039-31.359-70.401-70.401-70.401L 454.401,127.999 c-39.039,0.00-70.401,31.359-70.401,70.401l0.00,115.20 C 384.00,352.639, 415.359,384.001, 454.401,384.001z M 454.401,799.999l 595.20,0.00 c 39.039,0.00, 70.401-31.359, 70.401-70.401
	l0.00-115.20 c0.00-39.039-31.359-70.401-70.401-70.401L 454.401,544.00 c-39.039,0.00-70.401,31.359-70.401,70.401l0.00,115.20 C 384.00,768.64, 415.359,799.999, 454.401,799.999z" data-tags="battery" />
<glyph unicode="&#xe05d;" d="M0.00,288.001c0.00-70.719, 57.279-128.001, 128.001-128.001l 1280.001,0.00 c 70.719,0.00, 128.001,57.279, 128.001,128.001L 1536.00,1152.001 c0.00,70.719-57.279,128.001-128.001,128.001L 128.001,1279.999 
	c-70.719,0.00-128.001-57.279-128.001-128.001L0.00,288.001 z M 471.039,719.041l-292.80,294.72c-24.288,24.321-24.288,63.681,0.00,87.999c 24.351,24.321, 63.711,24.321, 87.999,0.00L 733.44,633.952
	c 18.879-18.561, 49.953-18.561, 68.511,0.00L 1269.759,1101.76c 24.321,24.321, 63.681,24.321, 87.999,0.00c 24.321-24.321, 24.321-63.681,0.00-87.999l-293.121-294.72l 293.121-292.767
	c 24.321-24.321, 24.321-63.681,0.00-87.999s-63.681-24.321-87.999,0.00l-292.80,292.479c0.00,0.00-91.488-93.12-108.129-109.761C 842.88,495.679, 807.039,480.001, 768.00,480.001
	c-39.681,0.00-75.519,15.999-101.439,41.952c-16.959,16.641-107.841,108.768-107.841,108.768l-292.512-292.479c-24.288-24.321-63.648-24.321-87.999,0.00
	c-24.288,24.321-24.288,63.681,0.00,87.999L 471.039,719.041z" data-tags="envelope, letter, email, mail" />
<glyph unicode="&#xe061;" d="M 768.00,1504.00C 494.40,1504.00, 220.161,1455.04, 120.639,1357.441c-82.56-80.961-110.079-224.001-119.361-314.559
	c0.00,0.00-1.281-8.961-1.281-12.801c0.00-35.52, 28.80-63.999, 63.999-63.999c 4.161,0.00, 158.079,12.48, 250.881,20.16c 2.241,0.321, 4.479,0.639, 6.72,1.281c 34.56,0.96, 62.40,29.121, 62.40,63.999
	l 0.321,126.081C 384.321,1216.639, 416.001,1248.001, 455.04,1248.001l 625.887,0.00 C 1119.999,1248.001, 1151.679,1216.639, 1151.679,1177.60L 1152.00,1051.519c0.00-34.881, 27.84-63.039, 62.40-63.999
	c 2.208-0.639, 4.479-0.96, 6.72-1.281c 92.799-7.68, 246.72-20.16, 250.881-20.16c 35.199,0.00, 63.999,28.479, 63.999,63.999c0.00,3.84-1.281,12.801-1.281,12.801
	c-9.279,90.561-36.768,233.601-119.328,314.559C 1315.839,1455.04, 1041.60,1504.00, 768.00,1504.00z M 768.00,672.001c-70.719,0.00-128.001-57.279-128.001-128.001s 57.279-128.001, 128.001-128.001s 128.001,57.279, 128.001,128.001S 838.719,672.001, 768.00,672.001z
	 M 672.00,960.001l0.00,80.001 c0.00,44.16-35.841,80.001-80.001,80.001S 512.001,1084.159, 512.001,1039.999L 512.001,960.001 L 80.319,498.88C 50.559,469.759, 32.001,429.121, 32.001,384.319L 32.001,256.00 c0.00-70.719, 57.279-128.001, 128.001-128.001l 32.001,0.00 l0.00-80.001 
	C 192.00,3.841, 227.841-32.00, 272.001-32.00s 80.001,35.841, 80.001,80.001L 351.999,127.999 l 831.999,0.00 l0.00-80.001 c0.00-44.16, 35.841-80.001, 80.001-80.001s 80.001,35.841, 80.001,80.001L 1344.00,127.999 l 32.001,0.00 c 70.719,0.00, 128.001,57.279, 128.001,128.001l0.00,128.319 
	c0.00,44.799-18.561,85.44-48.321,114.561L 1023.999,960.001l0.00,80.001 c0.00,44.16-35.841,80.001-80.001,80.001S 864.00,1084.159, 864.00,1039.999L 864.00,960.001 L 672.00,960.001 z M 768.00,799.999c 141.441,0.00, 255.999-114.561, 255.999-255.999s-114.561-255.999-255.999-255.999
	s-255.999,114.561-255.999,255.999S 626.559,799.999, 768.00,799.999z" data-tags="phone, contact" />
<glyph unicode="&#xe062;" d="M 224.001,96.001c0.00-70.719, 57.279-128.001, 128.001-128.001l 800.001,0.00 c 70.719,0.00, 128.001,57.279, 128.001,128.001L 1280.001,1423.999 C 1280.001,1468.159, 1244.16,1504.00, 1200.00,1504.00
	S 1119.999,1468.159, 1119.999,1423.999L 1119.999,1344.001 L 351.999,1344.001 C 281.28,1344.001, 224.001,1286.719, 224.001,1216.00L 224.001,96.001 z M 454.401,1183.999l 595.20,0.00 c 39.039,0.00, 70.401-31.359, 70.401-70.401l0.00-339.201 c0.00-39.039-31.359-70.401-70.401-70.401L 454.401,703.999 
	c-39.039,0.00-70.401,31.359-70.401,70.401L 384.00,1113.601 C 384.00,1152.64, 415.359,1183.999, 454.401,1183.999z M 384.00,496.00c0.00,44.16, 35.841,80.001, 80.001,80.001s 80.001-35.841, 80.001-80.001S 508.161,415.999, 464.001,415.999
	S 384.00,451.84, 384.00,496.00z M 672.00,496.00c0.00,44.16, 35.841,80.001, 80.001,80.001s 80.001-35.841, 80.001-80.001S 796.161,415.999, 752.001,415.999S 672.00,451.84, 672.00,496.00z M 960.00,496.00
	c0.00,44.16, 35.841,80.001, 80.001,80.001s 80.001-35.841, 80.001-80.001S 1084.161,415.999, 1040.001,415.999S 960.00,451.84, 960.00,496.00z M 384.00,208.00c0.00,44.16, 35.841,80.001, 80.001,80.001s 80.001-35.841, 80.001-80.001
	S 508.161,127.999, 464.001,127.999S 384.00,163.84, 384.00,208.00z M 672.00,208.00c0.00,44.16, 35.841,80.001, 80.001,80.001s 80.001-35.841, 80.001-80.001S 796.161,127.999, 752.001,127.999S 672.00,163.84, 672.00,208.00z
	 M 960.00,208.00c0.00,44.16, 35.841,80.001, 80.001,80.001s 80.001-35.841, 80.001-80.001S 1084.161,127.999, 1040.001,127.999S 960.00,163.84, 960.00,208.00z" data-tags="phone, cellular" />
<glyph unicode="&#xe08d;" d="M 1152.00,1120.00L 1152.00,1312.00 c0.00,70.719-57.279,128.001-128.001,128.001L 512.001,1440.001 c-70.719,0.00-128.001-57.279-128.001-128.001l0.00-192.00 L 128.001,1120.00 c-70.719,0.00-128.001-57.279-128.001-128.001l0.00-831.999 
	c0.00-70.719, 57.279-128.001, 128.001-128.001l 1280.001,0.00 c 70.719,0.00, 128.001,57.279, 128.001,128.001L 1536.00,991.999 c0.00,70.719-57.279,128.001-128.001,128.001L 1152.00,1120.00 z M 614.40,1279.999l 307.20,0.00 C 960.639,1279.999, 992.001,1248.64, 992.001,1209.601L 992.001,1120.00 L 543.999,1120.00 L 543.999,1209.601 
	C 543.999,1248.64, 575.361,1279.999, 614.40,1279.999z M 384.00,895.999l0.00-639.999 c0.00-35.199-28.80-63.999-63.999-63.999s-63.999,28.80-63.999,63.999L 255.999,895.999 c0.00,35.199, 28.80,63.999, 63.999,63.999S 384.00,931.201, 384.00,895.999z M 1280.001,895.999l0.00-639.999 c0.00-35.199-28.80-63.999-63.999-63.999
	s-63.999,28.80-63.999,63.999L 1152.00,895.999 c0.00,35.199, 28.80,63.999, 63.999,63.999S 1280.001,931.201, 1280.001,895.999z" data-tags="suitcase, briefcase" />
<glyph unicode="&#xe027;" d="M 768.00,1216.00C 433.023,1216.00, 142.677,1020.937,0.00,736.00c 142.677-284.937, 433.023-480.00, 768.00-480.00c 334.971,0.00, 625.317,195.063, 768.00,480.00
	C 1393.326,1020.937, 1102.971,1216.00, 768.00,1216.00z M 1146.675,961.444c 90.243-57.561, 166.713-134.661, 224.151-225.444
	c-57.438-90.783-133.911-167.883-224.154-225.447C 1033.281,438.229, 902.337,400.00, 768.00,400.00c-134.34,0.00-265.284,38.229-378.675,110.556
	C 299.085,568.114, 222.615,645.214, 165.174,736.00c 57.438,90.786, 133.911,167.886, 224.151,225.444c 5.877,3.75, 11.814,7.383, 17.787,10.95
	C 392.175,931.402, 384.00,887.161, 384.00,841.00c0.00-212.076, 171.924-384.00, 384.00-384.00s 384.00,171.924, 384.00,384.00c0.00,46.161-8.175,90.402-23.112,131.397
	C 1134.858,968.83, 1140.795,965.194, 1146.675,961.444z M 768.00,889.00c0.00-79.53-64.47-144.00-144.00-144.00s-144.00,64.47-144.00,144.00s 64.47,144.00, 144.00,144.00
	S 768.00,968.53, 768.00,889.00z" data-tags="eye, views, vision, visit" />
<glyph unicode="&#xe028;" d="M 1258.983,1059.376 C 1375.449,976.831 1471.038,865.738 1536.00,736.00 C 1393.317,451.063 1102.971,256.00 768.00,256.00 C 674.151,256.00 583.812,271.318 499.233,299.626 L 616.167,416.56 C 665.754,405.61 716.625,400.00 768.00,400.00 C 902.337,400.00 1033.281,438.229 1146.669,510.556 C 1236.912,568.12 1313.385,645.22 1370.823,736.003 C 1315.245,823.852 1241.802,898.828 1155.348,955.744 L 1258.983,1059.376 ZM 768.00,457.00 C 733.914,457.00 700.872,461.464 669.408,469.801 L 1139.187,939.577 C 1147.53,908.119 1152.00,875.086 1152.00,841.00 C 1152.00,628.924 980.076,457.00 768.00,457.00 ZM 1440.00,1504.00l-80.607,0.00 L 1029.975,1174.582C 947.361,1201.468, 859.344,1216.00, 768.00,1216.00C 433.023,1216.00, 142.677,1020.937,0.00,736.00
		c 63.987-127.788, 157.692-237.462, 271.791-319.602L0.00,144.607L0.00,64.00 l 80.607,0.00 L 1440.00,1423.393L 1440.00,1504.00 z M 624.00,1033.00c 72.066,0.00, 131.769-52.941, 142.338-122.055
		l-164.286-164.286C 532.941,757.231, 480.00,816.934, 480.00,889.00C 480.00,968.53, 544.47,1033.00, 624.00,1033.00z M 165.174,736.00
		c 57.438,90.786, 133.911,167.886, 224.151,225.444c 5.877,3.75, 11.814,7.383, 17.787,10.95C 392.175,931.402, 384.00,887.161, 384.00,841.00
		c0.00-87.786, 29.475-168.672, 79.047-233.343l-87.825-87.825C 291.114,576.295, 219.591,649.99, 165.174,736.00z" data-tags="eye-blocked, views, vision, visit, banned, blocked, forbidden, private" />
</font>
</defs>
</svg>
